<svg xmlns="http://www.w3.org/2000/svg" width="24.182" height="24.182" viewBox="0 0 24.182 24.182">
  <g id="Group_28044" data-name="Group 28044" transform="translate(-1149.5 -429.921)">
    <circle id="Ellipse_1727" data-name="Ellipse 1727" cx="12.091" cy="12.091" r="12.091" transform="translate(1149.5 429.921)" fill="#396"/>
    <g id="vuesax_bold_calendar" data-name="vuesax/bold/calendar" transform="translate(661.5 245.921)">
      <g id="calendar" transform="translate(492 188)">
        <path id="Vector" d="M0,0H16V16H0Z" fill="none" opacity="0"/>
        <path id="Vector-2" data-name="Vector" d="M9.131,1.545V.5a.5.5,0,1,0-1,0v1H3.8V.5a.5.5,0,1,0-1,0V1.545A2.835,2.835,0,0,0,0,4.386a.335.335,0,0,0,.333.354H11.6a.331.331,0,0,0,.333-.354A2.835,2.835,0,0,0,9.131,1.545Z" transform="translate(2.032 0.836)" fill="#fff"/>
        <path id="Vector-3" data-name="Vector" d="M11.322,0H.666A.669.669,0,0,0,0,.669V4.788A2.993,2.993,0,0,0,3.33,8.131H8.658a2.993,2.993,0,0,0,3.33-3.343V.669A.669.669,0,0,0,11.322,0ZM4.136,5.6a1.05,1.05,0,0,1-.1.08.5.5,0,0,1-.12.06.422.422,0,0,1-.12.04.9.9,0,0,1-.133.013.661.661,0,0,1-.253-.053.687.687,0,0,1-.22-.14.68.68,0,0,1,0-.95.687.687,0,0,1,.22-.14.634.634,0,0,1,.386-.04.422.422,0,0,1,.12.04.5.5,0,0,1,.12.06l.1.08a.68.68,0,0,1,0,.95Zm0-2.34a.673.673,0,0,1-.946,0,.68.68,0,0,1,0-.95.663.663,0,0,1,.726-.14.621.621,0,0,1,.22.14.68.68,0,0,1,0,.95ZM6.467,5.6a.67.67,0,0,1-.946-.95.7.7,0,0,1,.946,0,.68.68,0,0,1,0,.95Zm0-2.34-.1.08a.5.5,0,0,1-.12.06.422.422,0,0,1-.12.04.9.9,0,0,1-.133.013.661.661,0,0,1-.666-.669.7.7,0,0,1,.193-.475.621.621,0,0,1,.22-.14.663.663,0,0,1,.726.14.68.68,0,0,1,0,.95ZM8.8,5.6a.67.67,0,0,1-.946-.95.7.7,0,0,1,.946,0,.68.68,0,0,1,0,.95Zm0-2.34-.1.08a.5.5,0,0,1-.12.06.422.422,0,0,1-.12.04,1,1,0,0,1-.133.013.661.661,0,0,1-.666-.669.7.7,0,0,1,.193-.475.687.687,0,0,1,.22-.14.634.634,0,0,1,.386-.04.422.422,0,0,1,.12.04.5.5,0,0,1,.12.06l.1.08a.68.68,0,0,1,0,.95Z" transform="translate(2.006 6.532)" fill="#fff"/>
      </g>
    </g>
  </g>
</svg>
