<svg xmlns="http://www.w3.org/2000/svg" width="24.182" height="24.182" viewBox="0 0 24.182 24.182">
  <g id="Group_28147" data-name="Group 28147" transform="translate(-1235.999 -321.909)">
    <circle id="Ellipse_1545" data-name="Ellipse 1545" cx="12.091" cy="12.091" r="12.091" transform="translate(1235.999 321.909)" fill="#396"/>
    <g id="vuesax_bold_clipboard-text" data-name="vuesax/bold/clipboard-text" transform="translate(1132.256 74.358)">
      <g id="clipboard-text" transform="translate(108 252)">
        <path id="Vector" d="M4.448,0H1.276A1.273,1.273,0,0,0,0,1.269V1.9A1.268,1.268,0,0,0,1.269,3.173H4.448A1.268,1.268,0,0,0,5.717,1.9V1.269A1.263,1.263,0,0,0,4.448,0Z" transform="translate(5.238 1.35)" fill="#fff"/>
        <path id="Vector-2" data-name="Vector" d="M9.416.5A1.956,1.956,0,0,1,7.466,2.449H4.293A1.956,1.956,0,0,1,2.342.5.5.5,0,0,0,1.6.059,3.018,3.018,0,0,0,0,2.725V9.077a3.025,3.025,0,0,0,3.017,3.017H8.741a3.025,3.025,0,0,0,3.017-3.017V2.725a3.018,3.018,0,0,0-1.6-2.666A.5.5,0,0,0,9.416.5ZM6.136,8.686H3.179a.506.506,0,0,1,0-1.013H6.136a.506.506,0,0,1,0,1.013ZM7.9,5.986H3.179a.506.506,0,0,1,0-1.013H7.9a.506.506,0,0,1,0,1.013Z" transform="translate(2.221 2.756)" fill="#fff"/>
        <path id="Vector-3" data-name="Vector" d="M0,0H16.2V16.2H0Z" transform="translate(16.2 16.2) rotate(180)" fill="none" opacity="0"/>
      </g>
    </g>
  </g>
</svg>
