<svg xmlns="http://www.w3.org/2000/svg" width="24.182" height="24.182" viewBox="0 0 24.182 24.182">
  <g id="Group_25197" data-name="Group 25197" transform="translate(-47 -529)">
    <g id="Group_24402" data-name="Group 24402" transform="translate(-1188.999 207.091)">
      <circle id="Ellipse_1545" data-name="Ellipse 1545" cx="12.091" cy="12.091" r="12.091" transform="translate(1235.999 321.909)" fill="#396"/>
    </g>
    <path id="home" d="M12.443,5.715,6.6.11a.4.4,0,0,0-.547,0L.195,5.721A.668.668,0,0,0,0,6.19a.66.66,0,0,0,.659.659H1.58v5a.791.791,0,0,0,.79.79H4.61a.4.4,0,0,0,.4-.4V8.824a.132.132,0,0,1,.132-.132H7.507a.132.132,0,0,1,.132.132v3.424a.4.4,0,0,0,.4.4h2.239a.791.791,0,0,0,.79-.79v-5h.922a.66.66,0,0,0,.659-.659.673.673,0,0,0-.2-.475Zm0,0" transform="translate(53.085 534.769)" fill="#fff"/>
  </g>
</svg>
