<svg xmlns="http://www.w3.org/2000/svg" width="24.182" height="24.182" viewBox="0 0 24.182 24.182">
  <g id="Group_25201" data-name="Group 25201" transform="translate(-47 -427)">
    <g id="Group_24802" data-name="Group 24802" transform="translate(-1188.999 105.091)">
      <circle id="Ellipse_1545" data-name="Ellipse 1545" cx="12.091" cy="12.091" r="12.091" transform="translate(1235.999 321.909)" fill="#396"/>
    </g>
    <g id="locked-padlock" transform="translate(-9.803 432)">
      <g id="lock" transform="translate(63.75)">
        <path id="Path_7347" data-name="Path 7347" d="M72.75,4.5h-.643V3.214a3.214,3.214,0,0,0-6.429,0V4.5h-.643A1.29,1.29,0,0,0,63.75,5.786v6.429A1.29,1.29,0,0,0,65.036,13.5H72.75a1.29,1.29,0,0,0,1.286-1.286V5.786A1.29,1.29,0,0,0,72.75,4.5Zm-3.857,5.786A1.286,1.286,0,1,1,70.179,9,1.29,1.29,0,0,1,68.893,10.286ZM70.886,4.5H66.9V3.214a1.993,1.993,0,0,1,3.986,0Z" transform="translate(-63.75)" fill="#fff"/>
      </g>
    </g>
  </g>
</svg>
