
<svg xmlns="http://www.w3.org/2000/svg" width="24.182" height="24.182" viewBox="0 0 24.182 24.182">
  <g id="Group_26839" data-name="Group 26839" transform="translate(-959.999 -149)">
    <g id="Group_26713" data-name="Group 26713" transform="translate(-276 -172.909)">
      <circle id="Ellipse_1545" data-name="Ellipse 1545" cx="12.091" cy="12.091" r="12.091" transform="translate(1235.999 321.909)" fill="#396"/>
    </g>
    <g id="_002-users" data-name="002-users" transform="translate(965 155)">
      <g id="Group_12008" data-name="Group 12008" transform="translate(0 0)">
        <path id="Path_3932" data-name="Path 3932" d="M10.827,31.306A3.332,3.332,0,0,0,6.68,26.1a3.334,3.334,0,0,0-4.152,5.2A4.737,4.737,0,0,0,0,35.515v1.431a.477.477,0,0,0,.477.477h12.4a.477.477,0,0,0,.477-.477V35.515A4.737,4.737,0,0,0,10.827,31.306Zm-3.3-.337c-.048-.023-.1-.043-.138-.069l.01-.015a3.346,3.346,0,0,0,.511-.931l.015-.04a3.364,3.364,0,0,0,.126-.491c0-.024.008-.048.011-.074a3.045,3.045,0,0,0,0-1.025c0-.025-.007-.048-.011-.074a3.365,3.365,0,0,0-.126-.491l-.015-.04a3.346,3.346,0,0,0-.511-.931l-.01-.015a2.381,2.381,0,1,1,2.174,4.23l-.111.048a2.339,2.339,0,0,1-.363.113l-.072.013a2.386,2.386,0,0,1-.42.042c-.063,0-.127,0-.191-.01a.36.36,0,0,1-.072,0,2.409,2.409,0,0,1-.78-.23C7.549,30.973,7.539,30.974,7.53,30.97Zm4.872,5.5H9.54v-.954c0-.149-.009-.3-.022-.444,0-.043-.01-.085-.015-.128-.013-.105-.028-.21-.048-.313q-.013-.066-.027-.133-.034-.159-.08-.316c-.01-.034-.019-.069-.03-.1a4.726,4.726,0,0,0-.575-1.205l-.019-.027q-.123-.183-.263-.353l0,0a4.33,4.33,0,0,0-.308-.342h.02a3.378,3.378,0,0,0,.406.029H8.6a3.373,3.373,0,0,0,.376-.024c.039,0,.078-.012.117-.018q.152-.023.3-.061l.085-.022a3.248,3.248,0,0,0,.382-.13,3.792,3.792,0,0,1,2.538,3.6v.954Z" transform="translate(-0.001 -25.494)" fill="#fff"/>
      </g>
    </g>
  </g>
</svg>
