<svg id="vuesax_bold_note-add" data-name="vuesax/bold/note-add" xmlns="http://www.w3.org/2000/svg" width="32" height="32" viewBox="0 0 32 32">
  <g id="note-add" transform="translate(0 0)">
    <path id="Vector" d="M1.045,5.976A1.043,1.043,0,0,0,2.09,4.932V1.045a1.045,1.045,0,1,0-2.09,0V4.918A1.046,1.046,0,0,0,1.045,5.976Z" transform="translate(19.887 2.786)" fill="#fff"/>
    <path id="Vector-2" data-name="Vector" d="M1.045,5.976A1.043,1.043,0,0,0,2.09,4.932V1.045a1.045,1.045,0,1,0-2.09,0V4.918A1.046,1.046,0,0,0,1.045,5.976Z" transform="translate(10.023 2.786)" fill="#fff"/>
    <path id="Vector-3" data-name="Vector" d="M2.543,1.335A1.33,1.33,0,0,1,4.664,2.416v.133A3.115,3.115,0,0,0,7.313,5.713a2.984,2.984,0,0,0,3.281-2.99V1.335A1.33,1.33,0,0,1,11.911,0h1.212a1.33,1.33,0,0,1,1.318,1.335V2.723A2.971,2.971,0,0,0,15.8,5.232a3.536,3.536,0,0,0,.382.214,1.756,1.756,0,0,0,.4.16,2.067,2.067,0,0,0,.514.107,2.507,2.507,0,0,0,.632,0,2.067,2.067,0,0,0,.514-.107,2.455,2.455,0,0,0,.4-.16,3.536,3.536,0,0,0,.382-.214A3.307,3.307,0,0,0,20.37,2.549V2.416a1.338,1.338,0,0,1,1.937-1.2c.013.013.026.013.04.027a.885.885,0,0,1,.145.093c.04.04.092.067.132.107a5.727,5.727,0,0,1,.975.988,3.3,3.3,0,0,1,.369.507.184.184,0,0,1,.04.053,4.685,4.685,0,0,1,.316.561c.026.027.04.04.04.067a3.267,3.267,0,0,1,.211.494,1.133,1.133,0,0,1,.079.187,5.23,5.23,0,0,1,.184.6,4.208,4.208,0,0,1,.119.587c.026.147.04.294.053.454.013.187.026.374.026.561V18.193a6.458,6.458,0,0,1-6.417,6.5H6.417A6.458,6.458,0,0,1,0,18.193V6.5A6.488,6.488,0,0,1,2.543,1.335Zm9.974,15.684h2.227v2.336a.988.988,0,1,0,1.976,0V17.019h2.385a1,1,0,0,0,0-2H16.72V12.68a.988.988,0,1,0-1.976,0v2.336H12.517a1,1,0,0,0,0,2Z" transform="translate(3.483 4.52)" fill="#fff"/>
    <path id="Vector-4" data-name="Vector" d="M0,32H32V0H0Z" fill="none" opacity="0"/>
  </g>
</svg>
