<svg xmlns="http://www.w3.org/2000/svg" xmlns:xlink="http://www.w3.org/1999/xlink" width="328" height="192" viewBox="0 0 328 192">
  <defs>
    <clipPath id="clip-path">
      <path id="Path_7425" data-name="Path 7425" d="M684.021,355.753l81,48.891,76.375-46v-71.22H690.38Z" transform="translate(-684.021 -287.422)" fill="#fff"/>
    </clipPath>
    <linearGradient id="linear-gradient" x1="3.644" y1="-12.945" x2="-0.055" y2="11.133" gradientUnits="objectBoundingBox">
      <stop offset="0" stop-color="#09005d"/>
      <stop offset="1" stop-color="#1a0f91"/>
    </linearGradient>
    <linearGradient id="linear-gradient-2" x1="-52.639" y1="-0.843" x2="-53.146" y2="2.39" gradientUnits="objectBoundingBox">
      <stop offset="0" stop-color="#ff928e"/>
      <stop offset="1" stop-color="#feb3b1"/>
    </linearGradient>
    <linearGradient id="linear-gradient-3" x1="-10.094" y1="-5.387" x2="-12.61" y2="17.678" xlink:href="#linear-gradient"/>
    <linearGradient id="linear-gradient-4" x1="-45.55" y1="-0.224" x2="-46.065" y2="2.539" xlink:href="#linear-gradient-2"/>
    <linearGradient id="linear-gradient-5" x1="0.541" y1="-0.073" x2="0.484" y2="1.325" xlink:href="#linear-gradient-2"/>
    <linearGradient id="linear-gradient-6" x1="-73.424" y1="-0.15" x2="-75.177" y2="2.993" xlink:href="#linear-gradient-2"/>
    <linearGradient id="linear-gradient-7" x1="-258.041" y1="-10.491" x2="-258.7" y2="-10.138" xlink:href="#linear-gradient"/>
    <linearGradient id="linear-gradient-8" x1="0.424" y1="0.008" x2="0.6" y2="1.002" xlink:href="#linear-gradient-2"/>
    <linearGradient id="linear-gradient-9" x1="2.503" y1="0.132" x2="-0.052" y2="0.564" xlink:href="#linear-gradient-2"/>
    <linearGradient id="linear-gradient-10" x1="-488.263" y1="-225.831" x2="-485.144" y2="-228.206" xlink:href="#linear-gradient-2"/>
    <linearGradient id="linear-gradient-11" x1="18.773" y1="-0.484" x2="15.938" y2="6.012" xlink:href="#linear-gradient"/>
    <linearGradient id="linear-gradient-12" x1="70.81" y1="0.5" x2="71.81" y2="0.5" xlink:href="#linear-gradient-2"/>
    <linearGradient id="linear-gradient-13" x1="21.585" y1="0.946" x2="22.253" y2="0.099" xlink:href="#linear-gradient"/>
    <linearGradient id="linear-gradient-14" x1="47.218" y1="-2.223" x2="40.2" y2="5.384" xlink:href="#linear-gradient"/>
    <linearGradient id="linear-gradient-15" x1="82.012" y1="0.5" x2="83.012" y2="0.5" xlink:href="#linear-gradient-2"/>
    <linearGradient id="linear-gradient-16" x1="15.133" y1="0.917" x2="15.603" y2="0.085" xlink:href="#linear-gradient"/>
    <linearGradient id="linear-gradient-17" x1="6.313" y1="2.511" x2="5.441" y2="3.915" gradientUnits="objectBoundingBox">
      <stop offset="0" stop-color="#fe7062"/>
      <stop offset="1" stop-color="#ff928e"/>
    </linearGradient>
    <linearGradient id="linear-gradient-18" x1="15.631" y1="5.741" x2="13.442" y2="9.325" xlink:href="#linear-gradient-17"/>
    <linearGradient id="linear-gradient-19" x1="-254.728" y1="-5.837" x2="-255.387" y2="-5.483" xlink:href="#linear-gradient"/>
  </defs>
  <g id="Group_28365" data-name="Group 28365" transform="translate(-796 -219)">
    <g id="Group_26833" data-name="Group 26833" transform="translate(-678 -12361)">
      <rect id="Rectangle_14158" data-name="Rectangle 14158" width="328" height="192" transform="translate(1474 12580)" fill="none"/>
      <g id="Group_26824" data-name="Group 26824" transform="translate(1339 12372)">
        <path id="Path_7405" data-name="Path 7405" d="M119.641,256.048c3.8,6.728,9.846,12.388,14.5,18.679,13.455,18.18-.544,39.454,5.6,59.052,5.351,17.076,27.6,21.653,43.87,22.346,27.41,1.168,54.789-.582,81.215-8.016,18.339-5.159,36.7-11.913,56.029-12.321,19.759-.418,38.346,7.515,57.435,11.266,20.961,4.119,46.031-.354,51.085-23.761,3.131-14.5-5.3-27.856-6.086-42.133-1.044-18.9,17.8-29.274,20.237-46.945,1.537-11.141-4.207-21.1-11.7-29.156-7.907-8.5-18.54-16.019-30.74-16.718-12.752-.73-24.133,5.966-36.051,9.162-33.493,8.982-52.5-20.975-83.327-25.155-13.9-1.885-30.983-.99-43.6,5.481-11.736,6.017-17.431,19.384-30.6,23.309-13.933,4.154-26.683-4.148-39.923-6.8a35.3,35.3,0,0,0-35.24,12.813c-8.315,10.36-17.313,24.007-16.281,37.686A26.558,26.558,0,0,0,119.641,256.048Z" transform="translate(19.019 37.521)" fill="#e5e5e5" opacity="0.392"/>
        <g id="Group_25021" data-name="Group 25021" transform="translate(166.833 266.226)">
          <g id="Group_25019" data-name="Group 25019" transform="translate(18.988)">
            <path id="Path_7406" data-name="Path 7406" d="M500.437,686.383c-8.171,1.634-18.605-7.274-21.967-17.006-3.459-10.015,2.883-14.21,2.834-28.108-.056-15.787-8.268-18.166-13.7-39.445-1.226-4.8-8.318-32.584.472-37.792,8.127-4.815,30.956,9,34.958,26.691,2.853,12.612-5.967,17.907-2.6,32.6,2.956,12.888,10.724,13.075,13.7,25.51C517.76,663.966,511.165,684.238,500.437,686.383Z" transform="translate(-463.742 -563.064)" fill="#9c3"/>
            <path id="Path_7407" data-name="Path 7407" d="M617.035,849.848c2.2-17.009-2.094-43.25-6.087-62.268-4.322-20.591-9.229-37.386-9.277-37.553l-.68.2c.049.167,4.948,16.94,9.265,37.5,3.981,18.963,8.266,45.117,6.076,62.027Z" transform="translate(-580.934 -722.704)" fill="#79a520"/>
          </g>
          <g id="Group_25020" data-name="Group 25020" transform="translate(0 36.001)">
            <path id="Path_7408" data-name="Path 7408" d="M380.082,894.832c10.718-5.585,14.387-24.761,8.294-30.994-4.117-4.211-10.02.218-15.715-4.147-7.271-5.573-1.922-16.071-7.639-29.684-4.865-11.585-16.535-22.548-23.355-20.3-7.138,2.355-10.9,19.825-4.8,30.339,3.965,6.837,10.033,7.173,11.35,13.533,1.528,7.379-5.853,10.744-5.893,17.9C342.25,884.328,365.9,902.22,380.082,894.832Z" transform="translate(-333.809 -809.413)" fill="#396"/>
            <path id="Path_7409" data-name="Path 7409" d="M500.48,1050.093a.437.437,0,0,0,.392-.627c-14.209-29.279-18.376-63.246-18.416-63.586a.436.436,0,1,0-.867.1c.041.341,4.225,34.454,18.5,63.864A.437.437,0,0,0,500.48,1050.093Z" transform="translate(-459.991 -959.763)" fill="#218352"/>
            <path id="Path_7410" data-name="Path 7410" d="M362.976,865.093a.209.209,0,0,0,.165-.337c-4.485-5.757-9.456-14.406-7.667-22.917a14.916,14.916,0,0,1,4.1-7.739.209.209,0,1,0-.273-.315,15.079,15.079,0,0,0-4.231,7.969c-1.006,4.784-.478,12.7,7.746,23.26A.209.209,0,0,0,362.976,865.093Z" transform="translate(-351.639 -830.179)" fill="#dce5fe"/>
            <path id="Path_7411" data-name="Path 7411" d="M655.844,1208.38a.208.208,0,0,0,.172-.091c6.893-10.059,9.243-17.832,6.986-23.1-2.007-4.685-7.074-5.557-7.125-5.566a.209.209,0,0,0-.067.412c.049.008,4.9.848,6.81,5.323,2.193,5.13-.144,12.766-6.948,22.7a.208.208,0,0,0,.172.327Z" transform="translate(-608.605 -1125.517)" fill="#f0f0f0"/>
          </g>
        </g>
        <g id="Group_25024" data-name="Group 25024" transform="translate(362.336 266.226)">
          <g id="Group_25022" data-name="Group 25022">
            <path id="Path_7412" data-name="Path 7412" d="M1686.3,686.383c8.171,1.634,18.605-7.274,21.967-17.006,3.459-10.015-2.884-14.21-2.834-28.108.055-15.787,8.267-18.166,13.7-39.445,1.226-4.8,8.318-32.584-.472-37.792-8.127-4.815-30.957,9-34.958,26.691-2.853,12.612,5.967,17.907,2.6,32.6-2.956,12.888-10.723,13.075-13.7,25.51C1668.976,663.966,1675.57,684.238,1686.3,686.383Z" transform="translate(-1671.599 -563.064)" fill="#396"/>
            <path id="Path_7413" data-name="Path 7413" d="M1772.753,849.848c-2.2-17.009,2.094-43.25,6.087-62.268,4.323-20.591,9.229-37.386,9.277-37.553l.68.2c-.049.167-4.948,16.94-9.265,37.5-3.98,18.963-8.266,45.117-6.076,62.027Z" transform="translate(-1757.46 -722.704)" fill="#218352"/>
          </g>
          <g id="Group_25023" data-name="Group 25023" transform="translate(12.876 36.001)">
            <path id="Path_7414" data-name="Path 7414" d="M1770.939,894.832c-10.718-5.585-14.387-24.761-8.294-30.994,4.117-4.211,10.02.218,15.715-4.147,7.271-5.573,1.922-16.071,7.639-29.684,4.865-11.585,16.535-22.548,23.354-20.3,7.138,2.355,10.9,19.825,4.8,30.339-3.965,6.837-10.033,7.173-11.35,13.533-1.528,7.379,5.853,10.744,5.893,17.9C1808.771,884.328,1785.118,902.22,1770.939,894.832Z" transform="translate(-1759.705 -809.413)" fill="#9c3"/>
            <path id="Path_7415" data-name="Path 7415" d="M1873.608,1050.093a.436.436,0,0,1-.392-.627c14.209-29.279,18.375-63.246,18.416-63.586a.437.437,0,1,1,.867.1c-.041.341-4.225,34.454-18.5,63.864A.436.436,0,0,1,1873.608,1050.093Z" transform="translate(-1856.589 -959.763)" fill="#79a520"/>
            <path id="Path_7416" data-name="Path 7416" d="M2074.42,865.093a.209.209,0,0,1-.164-.337c4.485-5.757,9.456-14.406,7.666-22.917a14.914,14.914,0,0,0-4.1-7.739.209.209,0,1,1,.273-.315,15.076,15.076,0,0,1,4.23,7.969c1.006,4.784.479,12.7-7.745,23.26A.209.209,0,0,1,2074.42,865.093Z" transform="translate(-2028.25 -830.179)" fill="#dce5fe"/>
            <path id="Path_7417" data-name="Path 7417" d="M1783.292,1208.38a.209.209,0,0,1-.172-.091c-6.893-10.059-9.243-17.832-6.986-23.1,2.007-4.685,7.074-5.557,7.124-5.566a.209.209,0,1,1,.067.412c-.049.008-4.9.848-6.81,5.323-2.193,5.13.145,12.766,6.949,22.7a.209.209,0,0,1-.172.327Z" transform="translate(-1773.024 -1125.517)" fill="#f0f0f0"/>
          </g>
        </g>
        <g id="Group_25028" data-name="Group 25028" transform="translate(210.506 238.317)">
          <path id="Path_7418" data-name="Path 7418" d="M633.914,724.719v89.646c0,6.6,5.794,11.945,12.942,11.945H797.386c7.148,0,12.942-5.348,12.942-11.945V724.719H633.914Z" transform="translate(-633.731 -673.186)" fill="#ccc"/>
          <path id="Path_7419" data-name="Path 7419" d="M765.246,396.932l-38.263-23.152a11.265,11.265,0,0,0-11.866,0l-38.262,23.145-44.2,26.734,44.2,26.667,44.2,26.668,44.2-26.7,44.2-26.638Z" transform="translate(-632.66 -372.091)" fill="#939393"/>
          <g id="Group_25027" data-name="Group 25027" transform="translate(3.33 86.613)" style="mix-blend-mode: soft-light;isolation: isolate">
            <g id="Group_25025" data-name="Group 25025">
              <path id="Path_7420" data-name="Path 7420" d="M655.757,1027.4a.31.31,0,0,1-.231-.515l55.122-62.016a.31.31,0,0,1,.463.411L655.988,1027.3A.308.308,0,0,1,655.757,1027.4Z" transform="translate(-655.447 -964.768)" fill="#fff"/>
            </g>
            <g id="Group_25026" data-name="Group 25026" transform="translate(114.38 0)">
              <path id="Path_7421" data-name="Path 7421" d="M1493.56,1027.4a.308.308,0,0,1-.231-.1l-55.122-62.017a.31.31,0,0,1,.463-.411l55.122,62.017a.31.31,0,0,1-.231.515Z" transform="translate(-1438.129 -964.768)" fill="#fff"/>
            </g>
          </g>
        </g>
        <g id="Group_25033" data-name="Group 25033" transform="translate(218.013 225.944)">
          <g id="Group_25032" data-name="Group 25032" transform="translate(0 0)" clip-path="url(#clip-path)">
            <g id="Group_25031" data-name="Group 25031" transform="translate(8.295 20.526)">
              <g id="Group_25029" data-name="Group 25029">
                <path id="Path_7422" data-name="Path 7422" d="M868.246,427.878H744.761a4.083,4.083,0,0,0-3.981,4.067V532.156H885.96V445.873Z" transform="translate(-740.78 -427.878)" fill="#fff"/>
                <path id="Path_7423" data-name="Path 7423" d="M1630.854,446.6l-16.2.14a1.434,1.434,0,0,1-1.07-.466,1.505,1.505,0,0,1-.336-1.144v-16.4Z" transform="translate(-1485.744 -428.6)" fill="#e5e5e5"/>
              </g>
            </g>
          </g>
        </g>
        <g id="Group_25037" data-name="Group 25037" transform="translate(187.741 257.126)">
          <path id="Path_7431" data-name="Path 7431" d="M2083.831,769.019l.076.924v0a.16.16,0,1,0,.319-.026v0l-.086-.932a.155.155,0,0,0-.309.027Z" transform="translate(-1848.993 -729.674)" fill="#9c99bc"/>
          <path id="Path_7432" data-name="Path 7432" d="M2084.892,790.127l0,.927v0a.176.176,0,1,0,.352,0v0l0-.936a.171.171,0,0,0-.343,0Z" transform="translate(-1849.895 -747.695)" fill="#9c99bc"/>
          <path id="Path_7433" data-name="Path 7433" d="M2083.683,811.254l-.083.923v0a.192.192,0,1,0,.382.035v0l.075-.933a.187.187,0,0,0-.373-.032Z" transform="translate(-1848.795 -765.735)" fill="#9c99bc"/>
          <path id="Path_7434" data-name="Path 7434" d="M2080.717,832.253l-.159.913v0a.208.208,0,0,0,.41.071v0l.151-.925a.2.2,0,0,0-.4-.068Z" transform="translate(-1846.195 -783.667)" fill="#9c99bc"/>
          <path id="Path_7435" data-name="Path 7435" d="M2076.066,852.986l-.23.9v.005a.224.224,0,1,0,.434.112v0l.225-.909a.219.219,0,0,0-.425-.107Z" transform="translate(-1842.159 -801.373)" fill="#9c99bc"/>
          <path id="Path_7436" data-name="Path 7436" d="M2069.8,873.319l-.3.876v.005a.24.24,0,0,0,.454.155v0l.294-.89a.235.235,0,0,0-.446-.15Z" transform="translate(-1836.747 -818.739)" fill="#9c99bc"/>
          <path id="Path_7437" data-name="Path 7437" d="M2062,893.158l-.366.852,0,.005a.256.256,0,0,0,.47.2v0l.361-.866a.251.251,0,0,0-.462-.2Z" transform="translate(-1830.02 -835.685)" fill="#9c99bc"/>
          <path id="Path_7438" data-name="Path 7438" d="M2052.731,912.389l-.428.821,0,.005a.272.272,0,0,0,.482.251v0l.425-.836a.267.267,0,0,0-.475-.245Z" transform="translate(-1822.044 -852.112)" fill="#9c99bc"/>
          <path id="Path_7439" data-name="Path 7439" d="M2042.063,930.9l-.488.786,0,.006a.288.288,0,0,0,.489.3l0,0,.486-.8a.283.283,0,0,0-.482-.3Z" transform="translate(-1812.873 -867.929)" fill="#9c99bc"/>
          <path id="Path_7440" data-name="Path 7440" d="M2030.057,948.605l-.544.748,0,.005a.3.3,0,1,0,.491.357l0,0,.544-.764a.3.3,0,0,0-.485-.349Z" transform="translate(-1802.56 -883.054)" fill="#9c99bc"/>
          <path id="Path_7441" data-name="Path 7441" d="M2016.774,965.4l-.6.7,0,.005a.32.32,0,1,0,.487.414l0,0,.6-.722a.315.315,0,0,0-.481-.406Z" transform="translate(-1791.156 -897.4)" fill="#9c99bc"/>
          <path id="Path_7442" data-name="Path 7442" d="M2002.269,981.168l-.651.657-.006.005a.336.336,0,1,0,.477.472l0,0,.655-.675a.331.331,0,0,0-.472-.463Z" transform="translate(-1778.707 -910.879)" fill="#9c99bc"/>
          <path id="Path_7443" data-name="Path 7443" d="M1986.608,995.819l-.7.6-.006.005a.352.352,0,0,0,.46.532l0,0,.7-.622a.347.347,0,0,0-.456-.523Z" transform="translate(-1765.272 -923.401)" fill="#9c99bc"/>
          <path id="Path_7444" data-name="Path 7444" d="M1969.865,1009.218l-.744.545-.007.005a.367.367,0,1,0,.435.593l0,0,.752-.563a.363.363,0,0,0-.432-.583Z" transform="translate(-1750.913 -934.854)" fill="#9c99bc"/>
          <path id="Path_7445" data-name="Path 7445" d="M1952.138,1021.261l-.785.484-.008,0a.379.379,0,0,0,.4.646h0l.8-.5a.376.376,0,0,0-.4-.64Z" transform="translate(-1735.714 -945.149)" fill="#9c99bc"/>
          <path id="Path_7446" data-name="Path 7446" d="M1933.509,1031.853l-.821.415-.01,0a.388.388,0,0,0,.35.693h0l.837-.429a.385.385,0,0,0-.349-.687Z" transform="translate(-1719.748 -954.206)" fill="#9c99bc"/>
          <path id="Path_7447" data-name="Path 7447" d="M1914.07,1040.825l-.856.342-.009,0a.4.4,0,1,0,.295.737h0l.873-.355a.394.394,0,0,0-.294-.731Z" transform="translate(-1703.089 -961.879)" fill="#9c99bc"/>
          <path id="Path_7448" data-name="Path 7448" d="M1893.972,1048.133l-.881.272-.009,0a.406.406,0,1,0,.24.776h0l.9-.283a.4.4,0,0,0-.24-.77Z" transform="translate(-1685.875 -968.128)" fill="#9c99bc"/>
          <path id="Path_7449" data-name="Path 7449" d="M1873.388,1053.836l-.9.2-.01,0a.415.415,0,0,0,.183.81h0l.917-.212a.412.412,0,0,0-.183-.8Z" transform="translate(-1668.252 -973.005)" fill="#9c99bc"/>
          <path id="Path_7450" data-name="Path 7450" d="M1852.461,1057.956l-.913.135h-.009a.424.424,0,0,0,.124.839h0l.93-.143a.421.421,0,0,0-.126-.833Z" transform="translate(-1650.339 -976.528)" fill="#9c99bc"/>
          <path id="Path_7451" data-name="Path 7451" d="M1831.313,1060.535l-.92.069h-.009a.433.433,0,1,0,.066.863h0l.938-.077a.43.43,0,0,0-.067-.857Z" transform="translate(-1632.243 -978.734)" fill="#9c99bc"/>
          <path id="Path_7452" data-name="Path 7452" d="M1810.06,1061.632l-.923.007h-.009a.442.442,0,0,0,.007.884h0l.94-.013a.439.439,0,0,0-.009-.878Z" transform="translate(-1614.061 -979.672)" fill="#9c99bc"/>
          <path id="Path_7453" data-name="Path 7453" d="M1788.8,1061.009l-.922-.052h-.009a.451.451,0,1,0-.051.9h0l.939.047a.448.448,0,0,0,.048-.895Z" transform="translate(-1595.875 -979.095)" fill="#9c99bc"/>
          <path id="Path_7454" data-name="Path 7454" d="M1767.613,1059.026l-.917-.108h-.008a.46.46,0,1,0-.107.913h0l.934.1a.457.457,0,0,0,.1-.908Z" transform="translate(-1577.758 -977.352)" fill="#9c99bc"/>
          <path id="Path_7455" data-name="Path 7455" d="M1746.576,1055.8l-.91-.161h-.008a.469.469,0,1,0-.163.923h0l.926.158a.466.466,0,0,0,.16-.918Z" transform="translate(-1559.771 -974.551)" fill="#9c99bc"/>
          <path id="Path_7456" data-name="Path 7456" d="M1725.754,1051.411l-.9-.21-.008,0a.478.478,0,1,0-.218.93h0l.915.209a.475.475,0,0,0,.214-.926Z" transform="translate(-1541.97 -970.753)" fill="#9c99bc"/>
          <path id="Path_7457" data-name="Path 7457" d="M1705.181,1045.914l-.889-.258-.007,0a.487.487,0,1,0-.271.935h0l.9.257a.484.484,0,0,0,.267-.93Z" transform="translate(-1524.382 -966.013)" fill="#9c99bc"/>
          <path id="Path_7458" data-name="Path 7458" d="M1684.916,1039.375l-.874-.3-.007,0a.5.5,0,1,0-.324.937h0l.889.3a.493.493,0,0,0,.32-.933Z" transform="translate(-1507.062 -960.385)" fill="#9c99bc"/>
          <path id="Path_7459" data-name="Path 7459" d="M1665,1031.846l-.858-.344-.007,0a.5.5,0,0,0-.376.937h0l.874.344a.5.5,0,0,0,.371-.933Z" transform="translate(-1490.038 -953.912)" fill="#9c99bc"/>
          <path id="Path_7460" data-name="Path 7460" d="M1645.462,1023.37l-.841-.385-.007,0a.514.514,0,0,0-.427.934h0l.856.385a.511.511,0,0,0,.423-.93Z" transform="translate(-1473.342 -946.631)" fill="#9c99bc"/>
          <path id="Path_7461" data-name="Path 7461" d="M1626.337,1013.981l-.823-.424-.007,0a.523.523,0,0,0-.479.929h0l.838.426a.52.52,0,0,0,.474-.925Z" transform="translate(-1456.998 -938.571)" fill="#9c99bc"/>
          <path id="Path_7462" data-name="Path 7462" d="M1607.711,1003.77l-.8-.458-.005,0a.526.526,0,1,0-.522.914h0l.815.463a.525.525,0,0,0,.519-.914Z" transform="translate(-1441.09 -929.813)" fill="#9c99bc"/>
          <path id="Path_7463" data-name="Path 7463" d="M1589.5,992.808l-.786-.49-.005,0a.529.529,0,0,0-.56.9h0l.8.495a.528.528,0,1,0,.557-.9Z" transform="translate(-1425.54 -920.417)" fill="#9c99bc"/>
          <path id="Path_7464" data-name="Path 7464" d="M1571.716,981.174l-.768-.518,0,0a.532.532,0,1,0-.6.882h0l.778.523a.531.531,0,1,0,.593-.881Z" transform="translate(-1410.35 -910.45)" fill="#9c99bc"/>
          <path id="Path_7465" data-name="Path 7465" d="M1554.343,968.928l-.75-.544,0,0a.535.535,0,1,0-.628.866h0l.759.549a.534.534,0,1,0,.626-.866Z" transform="translate(-1395.514 -899.962)" fill="#9c99bc"/>
          <path id="Path_7466" data-name="Path 7466" d="M1537.369,956.13l-.733-.567,0,0a.538.538,0,0,0-.659.851h0l.742.572a.537.537,0,1,0,.656-.851Z" transform="translate(-1381.021 -889.005)" fill="#9c99bc"/>
          <path id="Path_7467" data-name="Path 7467" d="M1520.777,942.839l-.717-.588,0,0a.541.541,0,1,0-.686.837h0l.725.592a.54.54,0,1,0,.683-.837Z" transform="translate(-1366.853 -877.63)" fill="#9c99bc"/>
          <path id="Path_7468" data-name="Path 7468" d="M1504.543,929.11l-.7-.607,0,0a.544.544,0,0,0-.711.823h0l.709.61a.543.543,0,1,0,.708-.823Z" transform="translate(-1352.991 -865.884)" fill="#9c99bc"/>
          <path id="Path_7469" data-name="Path 7469" d="M1488.639,915l-.688-.623,0,0a.547.547,0,1,0-.734.811h0l.695.626a.546.546,0,0,0,.731-.811Z" transform="translate(-1339.412 -853.812)" fill="#9c99bc"/>
          <path id="Path_7470" data-name="Path 7470" d="M1473.041,900.553l-.675-.636,0,0a.55.55,0,1,0-.754.8h0l.681.639a.549.549,0,1,0,.751-.8Z" transform="translate(-1326.093 -841.46)" fill="#9c99bc"/>
          <path id="Path_7471" data-name="Path 7471" d="M1457.711,885.823l-.665-.649,0,0a.553.553,0,0,0-.772.792h0l.67.651a.552.552,0,1,0,.769-.792Z" transform="translate(-1313.003 -828.866)" fill="#9c99bc"/>
          <path id="Path_7472" data-name="Path 7472" d="M1442.6,870.837l-.656-.659,0,0a.556.556,0,0,0-.788.784h0l.661.661a.555.555,0,1,0,.785-.784Z" transform="translate(-1300.101 -816.056)" fill="#9c99bc"/>
          <path id="Path_7473" data-name="Path 7473" d="M1427.7,855.653l-.649-.668h0a.559.559,0,0,0-.8.779h0l.652.67a.558.558,0,0,0,.8-.779Z" transform="translate(-1287.373 -803.079)" fill="#9c99bc"/>
          <path id="Path_7474" data-name="Path 7474" d="M1412.958,840.308l-.642-.675a.562.562,0,1,0-.816.773l0,0,.646.676a.561.561,0,1,0,.811-.775Z" transform="translate(-1274.785 -789.966)" fill="#9c99bc"/>
          <path id="Path_7475" data-name="Path 7475" d="M1398.345,824.84l-.637-.679a.565.565,0,1,0-.825.771h0l.64.68a.564.564,0,1,0,.821-.773Z" transform="translate(-1262.305 -776.752)" fill="#9c99bc"/>
          <path id="Path_7476" data-name="Path 7476" d="M1383.821,809.288l-.634-.682a.568.568,0,0,0-.833.772h0l.636.682a.567.567,0,0,0,.829-.773Z" transform="translate(-1249.9 -763.468)" fill="#9c99bc"/>
          <path id="Path_7477" data-name="Path 7477" d="M1369.339,793.684l-.634-.685a.571.571,0,1,0-.837.775h0l.635.684a.57.57,0,0,0,.835-.775Z" transform="translate(-1237.53 -750.141)" fill="#9c99bc"/>
          <path id="Path_7478" data-name="Path 7478" d="M1354.865,778.085l-.634-.684a.574.574,0,0,0-.841.78h0l.635.682a.573.573,0,0,0,.839-.779Z" transform="translate(-1225.167 -736.822)" fill="#9c99bc"/>
          <path id="Path_7479" data-name="Path 7479" d="M1340.353,762.521l-.636-.681a.577.577,0,1,0-.843.787v0l.637.679a.576.576,0,0,0,.841-.786Z" transform="translate(-1212.77 -723.534)" fill="#9c99bc"/>
          <path id="Path_7480" data-name="Path 7480" d="M1325.762,747.028l-.641-.678a.58.58,0,1,0-.843.8l0,0,.64.675a.579.579,0,1,0,.841-.795Z" transform="translate(-1200.306 -710.311)" fill="#9c99bc"/>
          <path id="Path_7481" data-name="Path 7481" d="M1311.054,731.645l-.647-.673a.582.582,0,0,0-.84.807h0l.646.669h0a.582.582,0,0,0,.838-.807Z" transform="translate(-1187.74 -697.182)" fill="#9c99bc"/>
          <path id="Path_7482" data-name="Path 7482" d="M1296.19,716.411l-.655-.666a.585.585,0,0,0-.835.821h0l.653.662h0a.585.585,0,0,0,.833-.82Z" transform="translate(-1175.041 -684.183)" fill="#9c99bc"/>
          <path id="Path_7483" data-name="Path 7483" d="M1281.131,701.367l-.664-.657a.588.588,0,1,0-.828.836h0l0,0,.662.652,0,0a.588.588,0,0,0,.826-.836Z" transform="translate(-1162.176 -671.349)" fill="#9c99bc"/>
          <path id="Path_7484" data-name="Path 7484" d="M1265.842,686.555l-.675-.646a.591.591,0,1,0-.818.854h0l0,0,.672.641,0,0a.591.591,0,0,0,.816-.854Z" transform="translate(-1149.113 -658.716)" fill="#9c99bc"/>
          <path id="Path_7485" data-name="Path 7485" d="M1250.311,672.049l-.69-.634a.59.59,0,0,0-.8.868l0,0,.684.63,0,0a.59.59,0,1,0,.8-.868Z" transform="translate(-1135.85 -646.349)" fill="#9c99bc"/>
          <path id="Path_7486" data-name="Path 7486" d="M1234.481,657.871l-.7-.618a.587.587,0,1,0-.776.882l0,0,.7.614,0,0a.588.588,0,1,0,.777-.882Z" transform="translate(-1122.333 -634.264)" fill="#9c99bc"/>
          <path id="Path_7487" data-name="Path 7487" d="M1218.326,644.071l-.718-.6a.585.585,0,0,0-.751.9l0,0,.71.6,0,0a.586.586,0,0,0,.753-.9Z" transform="translate(-1108.539 -622.504)" fill="#9c99bc"/>
          <path id="Path_7488" data-name="Path 7488" d="M1201.824,630.707l-.734-.58a.583.583,0,1,0-.723.914l0,0,.725.576,0,0a.584.584,0,0,0,.726-.914Z" transform="translate(-1094.449 -611.119)" fill="#9c99bc"/>
          <path id="Path_7489" data-name="Path 7489" d="M1184.935,617.819l-.751-.558a.58.58,0,0,0-.693.932l0,0,.742.553,0,0a.581.581,0,0,0,.695-.932Z" transform="translate(-1080.028 -600.142)" fill="#9c99bc"/>
          <path id="Path_7490" data-name="Path 7490" d="M1167.646,605.467l-.77-.534a.578.578,0,1,0-.659.95l0,0,.759.529,0,0a.579.579,0,1,0,.662-.95Z" transform="translate(-1065.265 -589.626)" fill="#9c99bc"/>
          <path id="Path_7491" data-name="Path 7491" d="M1149.938,593.706l-.79-.508a.576.576,0,1,0-.623.969l0,0,.778.5.005,0a.577.577,0,0,0,.625-.969Z" transform="translate(-1050.146 -579.617)" fill="#9c99bc"/>
          <path id="Path_7492" data-name="Path 7492" d="M1131.81,582.6l-.807-.478a.574.574,0,0,0-.584.987l0,0,.8.473.005,0a.574.574,0,0,0,.587-.988Z" transform="translate(-1034.67 -570.172)" fill="#9c99bc"/>
          <path id="Path_7493" data-name="Path 7493" d="M1113.288,572.18l-.824-.448a.571.571,0,0,0-.546,1l0,0,.813.443.005,0a.572.572,0,1,0,.548-1Z" transform="translate(-1018.86 -561.307)" fill="#9c99bc"/>
          <path id="Path_7494" data-name="Path 7494" d="M1094.4,562.442l-.84-.417a.569.569,0,1,0-.507,1.019l0,0,.828.413.006,0a.57.57,0,0,0,.509-1.02Z" transform="translate(-1002.737 -553.026)" fill="#9c99bc"/>
          <path id="Path_7495" data-name="Path 7495" d="M1075.172,553.394l-.854-.387a.567.567,0,0,0-.468,1.033l0,0,.843.383.006,0a.568.568,0,0,0,.47-1.033Z" transform="translate(-986.325 -545.334)" fill="#9c99bc"/>
          <path id="Path_7496" data-name="Path 7496" d="M1055.629,545.044l-.867-.356a.565.565,0,1,0-.429,1.045l0,0,.856.352.006,0a.565.565,0,0,0,.431-1.045Z" transform="translate(-969.646 -538.238)" fill="#9c99bc"/>
          <path id="Path_7497" data-name="Path 7497" d="M1035.8,537.4l-.88-.325a.562.562,0,0,0-.39,1.055l0,0,.868.322.006,0a.563.563,0,1,0,.392-1.056Z" transform="translate(-952.722 -531.74)" fill="#9c99bc"/>
          <path id="Path_7498" data-name="Path 7498" d="M1015.71,530.456l-.891-.294a.56.56,0,1,0-.351,1.064l0,0,.879.291.006,0a.561.561,0,0,0,.353-1.065Z" transform="translate(-935.577 -525.846)" fill="#9c99bc"/>
          <path id="Path_7499" data-name="Path 7499" d="M995.383,524.229l-.9-.262a.558.558,0,1,0-.312,1.071l0,0,.889.26.005,0a.558.558,0,1,0,.314-1.072Z" transform="translate(-918.231 -520.561)" fill="#9c99bc"/>
          <path id="Path_7500" data-name="Path 7500" d="M974.848,518.721l-.909-.23a.556.556,0,1,0-.273,1.077h0l.9.229.006,0a.556.556,0,1,0,.275-1.078Z" transform="translate(-900.708 -515.891)" fill="#9c99bc"/>
          <path id="Path_7501" data-name="Path 7501" d="M954.132,513.939l-.917-.2a.553.553,0,1,0-.234,1.082h0l.905.2h.006a.554.554,0,0,0,.236-1.083Z" transform="translate(-883.031 -511.838)" fill="#9c99bc"/>
          <path id="Path_7502" data-name="Path 7502" d="M933.26,509.888l-.923-.166a.551.551,0,0,0-.195,1.085h0l.911.165h.006a.552.552,0,0,0,.2-1.086Z" transform="translate(-865.223 -508.41)" fill="#9c99bc"/>
          <path id="Path_7503" data-name="Path 7503" d="M912.258,506.573l-.928-.133a.549.549,0,1,0-.156,1.086h0l.917.133h.006a.549.549,0,0,0,.158-1.088Z" transform="translate(-847.304 -505.611)" fill="#9c99bc"/>
          <path id="Path_7504" data-name="Path 7504" d="M891.154,504l-.932-.1a.547.547,0,1,0-.117,1.087h0l.921.1h.006a.547.547,0,0,0,.119-1.088Z" transform="translate(-829.299 -503.444)" fill="#9c99bc"/>
          <path id="Path_7505" data-name="Path 7505" d="M869.972,502.178l-.935-.067a.544.544,0,1,0-.078,1.086h0l.924.068h.006a.545.545,0,1,0,.08-1.087Z" transform="translate(-811.229 -501.917)" fill="#9c99bc"/>
          <path id="Path_7506" data-name="Path 7506" d="M848.739,501.108l-.937-.034a.542.542,0,1,0-.039,1.083h.005l.925.035h.006a.543.543,0,1,0,.041-1.085Z" transform="translate(-793.116 -501.033)" fill="#9c99bc"/>
          <path id="Path_7507" data-name="Path 7507" d="M827.484,500.8h-.937a.54.54,0,0,0,0,1.079h.005l.926,0h.006a.54.54,0,0,0,0-1.081Z" transform="translate(-774.986 -500.797)" fill="#9c99bc"/>
          <path id="Path_7508" data-name="Path 7508" d="M806.234,501.057l-.937.034a.537.537,0,0,0,.038,1.074h.005l.925-.032h.006a.538.538,0,0,0-.037-1.076Z" transform="translate(-756.86 -501.019)" fill="#9c99bc"/>
          <path id="Path_7509" data-name="Path 7509" d="M785.012,502.085l-.935.068a.535.535,0,1,0,.077,1.067h.005l.923-.065h.006a.536.536,0,1,0-.076-1.069Z" transform="translate(-738.759 -501.896)" fill="#9c99bc"/>
          <path id="Path_7510" data-name="Path 7510" d="M763.85,503.888l-.932.1a.533.533,0,0,0,.116,1.06h.005l.921-.1h.006a.534.534,0,0,0-.114-1.061Z" transform="translate(-720.711 -503.434)" fill="#9c99bc"/>
          <path id="Path_7511" data-name="Path 7511" d="M742.773,506.471l-.928.136a.531.531,0,0,0,.154,1.05H742l.916-.133h.006a.531.531,0,0,0-.153-1.052Z" transform="translate(-702.736 -505.637)" fill="#9c99bc"/>
          <path id="Path_7512" data-name="Path 7512" d="M721.818,509.858l-.922.174a.528.528,0,0,0,.2,1.038h.006l.909-.171h.007a.529.529,0,0,0-.2-1.04Z" transform="translate(-684.868 -508.526)" fill="#9c99bc"/>
          <path id="Path_7513" data-name="Path 7513" d="M701.034,514.122l-.914.215a.526.526,0,1,0,.24,1.024h.006l.9-.21.007,0a.527.527,0,1,0-.239-1.026Z" transform="translate(-667.149 -512.163)" fill="#9c99bc"/>
          <path id="Path_7514" data-name="Path 7514" d="M680.474,519.315l-.9.257a.524.524,0,1,0,.287,1.008l.007,0,.889-.252.007,0a.525.525,0,1,0-.286-1.009Z" transform="translate(-649.624 -516.592)" fill="#9c99bc"/>
          <path id="Path_7515" data-name="Path 7515" d="M660.231,525.507l-.89.3a.518.518,0,1,0,.335.98l.006,0,.875-.295.008,0a.52.52,0,0,0-.332-.985Z" transform="translate(-632.377 -521.872)" fill="#9c99bc"/>
          <path id="Path_7516" data-name="Path 7516" d="M640.355,532.762l-.872.352a.511.511,0,0,0,.382.948l.006,0,.857-.342.008,0a.513.513,0,0,0-.38-.953Z" transform="translate(-615.447 -528.059)" fill="#9c99bc"/>
          <path id="Path_7517" data-name="Path 7517" d="M620.94,541.13l-.85.4a.5.5,0,0,0,.432.911l.007,0,.835-.392.008,0a.506.506,0,0,0-.43-.916Z" transform="translate(-598.915 -535.194)" fill="#9c99bc"/>
          <path id="Path_7518" data-name="Path 7518" d="M602.1,550.679l-.823.458a.5.5,0,1,0,.483.869l.007,0,.807-.445.009,0a.5.5,0,0,0-.481-.875Z" transform="translate(-582.88 -543.336)" fill="#9c99bc"/>
          <path id="Path_7519" data-name="Path 7519" d="M583.97,561.475l-.79.515a.49.49,0,1,0,.536.821l.007,0,.774-.5.009-.006a.492.492,0,0,0-.534-.827Z" transform="translate(-567.456 -552.539)" fill="#9c99bc"/>
          <path id="Path_7520" data-name="Path 7520" d="M566.707,573.572l-.748.574a.483.483,0,1,0,.588.767l.007-.006.733-.557.009-.007a.485.485,0,1,0-.587-.773Z" transform="translate(-552.779 -562.851)" fill="#9c99bc"/>
          <path id="Path_7521" data-name="Path 7521" d="M550.483,587l-.7.633a.477.477,0,1,0,.64.706l.007-.007.685-.614.009-.008a.479.479,0,1,0-.639-.712Z" transform="translate(-538.995 -574.296)" fill="#9c99bc"/>
          <path id="Path_7522" data-name="Path 7522" d="M535.481,601.762l-.642.692a.47.47,0,1,0,.688.639l.007-.008.628-.671.008-.009a.472.472,0,1,0-.688-.645Z" transform="translate(-526.261 -586.878)" fill="#9c99bc"/>
          <path id="Path_7523" data-name="Path 7523" d="M521.892,617.819l-.576.751a.463.463,0,0,0,.734.564l.008-.01.562-.725.009-.011a.465.465,0,1,0-.735-.57Z" transform="translate(-514.74 -600.562)" fill="#9c99bc"/>
          <path id="Path_7524" data-name="Path 7524" d="M510,635.184l-.5.8a.456.456,0,0,0,.776.479l.006-.01.485-.778.007-.011a.458.458,0,0,0-.777-.485Z" transform="translate(-504.678 -615.359)" fill="#9c99bc"/>
          <path id="Path_7525" data-name="Path 7525" d="M499.914,653.685l-.416.848a.449.449,0,0,0,.806.4l0-.01.408-.823.006-.012a.451.451,0,1,0-.808-.4Z" transform="translate(-496.154 -631.126)" fill="#9c99bc"/>
          <path id="Path_7526" data-name="Path 7526" d="M491.66,673.126l-.334.883a.442.442,0,1,0,.827.313l0-.009.329-.859,0-.011a.444.444,0,1,0-.83-.318Z" transform="translate(-489.19 -647.697)" fill="#9c99bc"/>
          <path id="Path_7527" data-name="Path 7527" d="M485.246,693.3l-.252.908a.435.435,0,0,0,.839.233l0-.009.25-.884,0-.011a.437.437,0,1,0-.842-.238Z" transform="translate(-483.794 -664.891)" fill="#9c99bc"/>
          <path id="Path_7528" data-name="Path 7528" d="M480.655,713.994l-.172.927a.429.429,0,0,0,.843.156l0-.009.172-.9,0-.011a.431.431,0,0,0-.846-.161Z" transform="translate(-479.95 -682.537)" fill="#9c99bc"/>
          <path id="Path_7529" data-name="Path 7529" d="M477.875,735.066l-.092.938a.422.422,0,1,0,.839.082v-.009l.094-.916v-.011a.424.424,0,1,0-.843-.086Z" transform="translate(-477.649 -700.504)" fill="#9c99bc"/>
          <path id="Path_7530" data-name="Path 7530" d="M476.89,756.34l-.013.942a.415.415,0,1,0,.829.011v-.009l.016-.921v-.011a.417.417,0,1,0-.834-.015Z" transform="translate(-476.878 -718.644)" fill="#9c99bc"/>
          <path id="Path_7531" data-name="Path 7531" d="M477.3,777.662l.066.94a.408.408,0,1,0,.814-.058v-.009l-.061-.919v-.01a.41.41,0,0,0-.818.054Z" transform="translate(-477.241 -736.826)" fill="#9c99bc"/>
          <path id="Path_7532" data-name="Path 7532" d="M479.424,798.882l.145.931a.4.4,0,0,0,.793-.124v-.008l-.138-.911,0-.01a.4.4,0,1,0-.8.121Z" transform="translate(-479.048 -754.923)" fill="#9c99bc"/>
          <path id="Path_7533" data-name="Path 7533" d="M483.327,819.851l.224.915a.394.394,0,1,0,.766-.188l0-.008-.215-.9,0-.01a.4.4,0,1,0-.771.185Z" transform="translate(-482.374 -772.806)" fill="#9c99bc"/>
          <path id="Path_7534" data-name="Path 7534" d="M489.014,840.411l.3.892a.387.387,0,0,0,.734-.249l0-.008-.293-.874,0-.01a.389.389,0,0,0-.739.247Z" transform="translate(-487.223 -790.341)" fill="#9c99bc"/>
          <path id="Path_7535" data-name="Path 7535" d="M496.491,860.387l.382.86a.381.381,0,0,0,.7-.309l0-.008-.37-.842,0-.01a.383.383,0,1,0-.7.307Z" transform="translate(-493.596 -807.377)" fill="#9c99bc"/>
          <path id="Path_7536" data-name="Path 7536" d="M505.754,879.6l.461.822a.374.374,0,1,0,.652-.366l0-.008-.448-.805-.005-.009a.376.376,0,1,0-.657.365Z" transform="translate(-501.493 -823.762)" fill="#9c99bc"/>
          <path id="Path_7537" data-name="Path 7537" d="M516.818,897.873l.54.772a.362.362,0,0,0,.594-.412l-.006-.009-.522-.759-.006-.009a.365.365,0,0,0-.6.414Z" transform="translate(-510.925 -839.354)" fill="#9c99bc"/>
          <path id="Path_7538" data-name="Path 7538" d="M529.635,914.989l.615.714a.35.35,0,0,0,.531-.454l-.007-.008-.6-.7-.007-.008a.353.353,0,0,0-.539.457Z" transform="translate(-521.852 -853.961)" fill="#9c99bc"/>
          <path id="Path_7539" data-name="Path 7539" d="M544.114,930.716l.686.648a.337.337,0,0,0,.465-.489l-.008-.007-.666-.639-.008-.007a.341.341,0,0,0-.472.492Z" transform="translate(-534.197 -867.386)" fill="#9c99bc"/>
          <path id="Path_7540" data-name="Path 7540" d="M560.125,944.9l.746.574a.325.325,0,0,0,.4-.513l-.008-.006-.726-.569-.008-.006a.329.329,0,0,0-.405.518Z" transform="translate(-547.85 -879.5)" fill="#9c99bc"/>
          <path id="Path_7541" data-name="Path 7541" d="M577.443,957.443l.8.5a.313.313,0,0,0,.335-.529l-.008,0-.778-.5-.008,0a.317.317,0,0,0-.341.534Z" transform="translate(-562.62 -890.21)" fill="#9c99bc"/>
          <path id="Path_7542" data-name="Path 7542" d="M595.868,968.281l.839.423a.3.3,0,0,0,.273-.536l-.007,0-.821-.422-.007,0a.3.3,0,0,0-.278.542Z" transform="translate(-578.336 -899.471)" fill="#9c99bc"/>
          <path id="Path_7543" data-name="Path 7543" d="M615.2,977.391l.872.346a.289.289,0,0,0,.215-.536l-.007,0-.856-.347-.007,0a.292.292,0,1,0-.219.541Z" transform="translate(-594.828 -907.26)" fill="#9c99bc"/>
          <path id="Path_7544" data-name="Path 7544" d="M635.247,984.754l.9.269a.276.276,0,0,0,.16-.529l-.007,0-.884-.272-.007,0a.28.28,0,0,0-.164.535Z" transform="translate(-611.932 -913.561)" fill="#9c99bc"/>
          <path id="Path_7545" data-name="Path 7545" d="M655.861,990.372l.919.191a.264.264,0,0,0,.11-.517l-.007,0-.9-.2h-.007a.268.268,0,1,0-.113.523Z" transform="translate(-629.522 -918.374)" fill="#9c99bc"/>
          <path id="Path_7546" data-name="Path 7546" d="M676.864,994.232l.931.113a.252.252,0,0,0,.063-.5h-.006l-.918-.119h-.006a.256.256,0,1,0-.066.507Z" transform="translate(-647.446 -921.687)" fill="#9c99bc"/>
          <path id="Path_7547" data-name="Path 7547" d="M698.11,996.323l.937.035a.24.24,0,0,0,.02-.479h-.006l-.925-.042h-.006a.243.243,0,1,0-.022.486Z" transform="translate(-665.579 -923.492)" fill="#9c99bc"/>
          <path id="Path_7548" data-name="Path 7548" d="M719.45,996.416l.936-.044a.228.228,0,0,0-.02-.455h-.006l-.925.036h-.006a.231.231,0,1,0,.018.462Z" transform="translate(-683.794 -923.561)" fill="#9c99bc"/>
          <path id="Path_7549" data-name="Path 7549" d="M740.731,994.449l.931-.125a.215.215,0,0,0-.056-.427H741.6l-.92.116h-.006a.219.219,0,0,0,.055.435Z" transform="translate(-701.96 -921.834)" fill="#9c99bc"/>
          <path id="Path_7550" data-name="Path 7550" d="M761.816,990.641l.914-.206a.2.2,0,0,0-.088-.4h-.005l-.905.2h-.005a.207.207,0,1,0,.088.4Z" transform="translate(-719.96 -918.537)" fill="#9c99bc"/>
          <path id="Path_7551" data-name="Path 7551" d="M782.492,984.971l.89-.288a.191.191,0,0,0-.116-.364l-.005,0-.882.278-.005,0a.195.195,0,0,0,.117.371Z" transform="translate(-737.612 -913.65)" fill="#9c99bc"/>
          <path id="Path_7552" data-name="Path 7552" d="M802.585,977.416l.86-.372a.179.179,0,0,0-.141-.329l0,0-.853.361,0,0a.183.183,0,1,0,.142.336Z" transform="translate(-754.769 -907.153)" fill="#9c99bc"/>
          <path id="Path_7553" data-name="Path 7553" d="M821.91,967.975l.819-.454a.167.167,0,0,0-.16-.292l0,0-.814.443,0,0a.17.17,0,0,0,.163.3Z" transform="translate(-771.271 -899.048)" fill="#9c99bc"/>
          <path id="Path_7554" data-name="Path 7554" d="M840.241,957.356l.6-.417a.155.155,0,0,0-.176-.256l0,0-.6.408,0,0a.158.158,0,1,0,.178.262Z" transform="translate(-786.928 -890.037)" fill="#9c99bc"/>
        </g>
        <g id="Group_25040" data-name="Group 25040" transform="translate(169.595 216.529)">
          <g id="Group_25038" data-name="Group 25038" transform="translate(12.525 0)">
            <path id="Path_7555" data-name="Path 7555" d="M459.358,269.687a.953.953,0,0,1-.9-.634l-1.33-3.757a19.335,19.335,0,0,1-5.216-2.113l-3.571,1.776a.952.952,0,0,1-1.093-.174l-3.689-3.629a.954.954,0,0,1-.192-1.089l1.717-3.6a19.362,19.362,0,0,1-2.2-5.18l-3.778-1.268a.952.952,0,0,1-.649-.895l-.042-5.176a.953.953,0,0,1,.634-.905l3.757-1.33a19.364,19.364,0,0,1,2.113-5.216l-1.776-3.571a.952.952,0,0,1,.174-1.092l3.629-3.689a.952.952,0,0,1,1.089-.192l3.6,1.717a19.343,19.343,0,0,1,5.18-2.2l1.268-3.779a.953.953,0,0,1,.9-.649l5.175-.043h.007a.952.952,0,0,1,.9.635l1.33,3.757a19.357,19.357,0,0,1,5.216,2.113l3.571-1.776a.956.956,0,0,1,1.092.173l3.69,3.63a.951.951,0,0,1,.191,1.089l-1.717,3.6a19.352,19.352,0,0,1,2.2,5.181l3.778,1.268a.953.953,0,0,1,.649.895l.042,5.176a.953.953,0,0,1-.635.906l-3.757,1.33a19.351,19.351,0,0,1-2.113,5.216l1.776,3.571a.952.952,0,0,1-.174,1.092l-3.63,3.69a.952.952,0,0,1-1.089.191l-3.6-1.717a19.358,19.358,0,0,1-5.18,2.2L465.436,269a.954.954,0,0,1-.894.649l-5.176.042Zm-7.389-7.867.282.172a18.163,18.163,0,0,0,5.464,2.214l.322.073,1.491,4.212,4.829-.039,1.422-4.236.321-.078a18.177,18.177,0,0,0,5.428-2.3l.279-.176,4.036,1.925,3.386-3.442-1.991-4,.172-.282a18.162,18.162,0,0,0,2.214-5.464l.073-.322,4.212-1.491-.039-4.829-4.236-1.422-.078-.321a18.177,18.177,0,0,0-2.3-5.428l-.176-.279L479,232.264l-3.442-3.386-4,1.991-.282-.172a18.169,18.169,0,0,0-5.464-2.213l-.322-.073L464,224.2l-4.829.04-1.422,4.236-.321.078a18.163,18.163,0,0,0-5.427,2.3l-.279.176-4.035-1.925-3.386,3.442,1.991,4-.172.282A18.183,18.183,0,0,0,443.9,242.3l-.073.322-4.212,1.491.039,4.828,4.236,1.422.078.321a18.171,18.171,0,0,0,2.3,5.427l.176.279-1.925,4.036,3.443,3.386Zm5.313-33.848h0Zm4.406,31.543a13.086,13.086,0,0,1-.1-26.172,13.2,13.2,0,0,1,2.772.271.6.6,0,0,1-.242,1.171,11.893,11.893,0,1,0,9.467,11.546,11.873,11.873,0,0,0-1.735-6.091.6.6,0,1,1,1.02-.623,13.088,13.088,0,0,1-11.069,19.9Z" transform="translate(-438.42 -223.002)" fill="#d7d6e2"/>
            <path id="Path_7556" data-name="Path 7556" d="M567.782,357.58a5.195,5.195,0,0,1-1.3-10.221h0a5.193,5.193,0,1,1,1.3,10.221Zm-1-9.064a4,4,0,1,0,4.878,2.858,3.97,3.97,0,0,0-4.878-2.858Z" transform="translate(-544.448 -329.041)" fill="#d7d6e2"/>
          </g>
          <g id="Group_25039" data-name="Group 25039" transform="translate(0 43.602)">
            <path id="Path_7557" data-name="Path 7557" d="M365.992,543.884a.619.619,0,0,1-.5-.252l-1.086-1.473a9.427,9.427,0,0,1-2.57-.232l-1.332,1.257a.618.618,0,0,1-.712.1l-2.2-1.155a.619.619,0,0,1-.325-.64l.275-1.812a9.454,9.454,0,0,1-1.654-1.98l-1.829-.053a.62.62,0,0,1-.573-.434l-.742-2.376a.619.619,0,0,1,.224-.683l1.474-1.086a9.459,9.459,0,0,1,.232-2.57l-1.257-1.333a.619.619,0,0,1-.1-.711l1.155-2.206a.619.619,0,0,1,.642-.324l1.81.274a9.474,9.474,0,0,1,1.98-1.654l.053-1.829a.62.62,0,0,1,.433-.573l2.377-.743a.619.619,0,0,1,.683.223l1.086,1.474a9.5,9.5,0,0,1,2.57.232l1.333-1.257a.621.621,0,0,1,.711-.1l2.206,1.156a.619.619,0,0,1,.325.641l-.274,1.811a9.466,9.466,0,0,1,1.654,1.98l1.83.054a.618.618,0,0,1,.573.434l.743,2.375a.62.62,0,0,1-.224.683l-1.474,1.086a9.454,9.454,0,0,1-.232,2.57l1.257,1.332a.619.619,0,0,1,.1.711l-1.155,2.206a.617.617,0,0,1-.64.325l-1.812-.274a9.483,9.483,0,0,1-1.98,1.654l-.053,1.83a.619.619,0,0,1-.433.572l-2.377.743A.609.609,0,0,1,365.992,543.884Zm-.082-.884h0Zm-1.071-1.769,1.26,1.71,2-.624.062-2.122.213-.126a8.587,8.587,0,0,0,2.136-1.784l.162-.187,2.1.318.971-1.854-1.458-1.546.062-.24a8.576,8.576,0,0,0,.25-2.773l-.018-.247,1.71-1.259-.625-2-2.122-.062-.126-.213a8.569,8.569,0,0,0-1.785-2.136l-.187-.162.318-2.1-1.854-.971-1.546,1.458-.24-.062a8.573,8.573,0,0,0-2.772-.251l-.247.018-1.259-1.709-2,.624-.062,2.122-.213.126a8.576,8.576,0,0,0-2.136,1.784l-.162.187-2.1-.318-.971,1.854,1.458,1.546-.062.24a8.573,8.573,0,0,0-.25,2.772l.018.247-1.71,1.259.624,2,2.123.061.126.213a8.582,8.582,0,0,0,1.784,2.136l.187.162-.318,2.1,1.854.971,1.545-1.458.24.062a8.589,8.589,0,0,0,2.772.25Zm-4.629,1.255h0ZM358,541.332h0Zm15.872-4.627h0Zm-.273-8.395h0Zm-18.628-1.5h0Zm14.96-2.888h0Zm-10.085-1.183h0Zm-.448-.013h0Zm2.63-.473h0Zm1.921,16.88a6.456,6.456,0,0,1-.582-12.886.448.448,0,0,1,.081.893,5.559,5.559,0,1,0,5.8,3.879,5.551,5.551,0,0,0-1.6-2.489.448.448,0,1,1,.6-.67,6.456,6.456,0,0,1-4.294,11.272Z" transform="translate(-352.711 -521.365)" fill="#d7d6e2"/>
          </g>
        </g>
        <g id="Group_25043" data-name="Group 25043" transform="translate(398.905 316.585)">
          <path id="Path_7558" data-name="Path 7558" d="M1943.462,1009.045a18.147,18.147,0,0,0-4.587,9.081c-1.139,5.811-3.846-8.216-3.846-8.216h-2.735s-1.032,14.454,6.689,15.6a4.146,4.146,0,0,0,3.869-1.532c1.41-1.79,3.61-4.976,4.141-8.012A9.744,9.744,0,0,0,1943.462,1009.045Z" transform="translate(-1930.727 -994.23)" fill="#66f"/>
          <path id="Path_7559" data-name="Path 7559" d="M2095.65,1443.593a.481.481,0,0,0-.013-.13,6.769,6.769,0,0,0-3.291-3.878l-1.272.1c-.731,2.26-1.2,3.363-1.086,3.981,0,.017.008.034.013.051A30.161,30.161,0,0,0,2095.65,1443.593Z" transform="translate(-2065.4 -1361.851)" fill="#24286d"/>
          <path id="Path_7560" data-name="Path 7560" d="M2090.183,1467.134a.551.551,0,0,0,.4.408,17.447,17.447,0,0,0,4.861-.069.463.463,0,0,0,.384-.461A30.158,30.158,0,0,1,2090.183,1467.134Z" transform="translate(-2065.581 -1385.269)" fill="url(#linear-gradient)"/>
          <path id="Path_7561" data-name="Path 7561" d="M2100.311,1426.04l-.557,2.681a.438.438,0,0,1-.375.361,3.714,3.714,0,0,1-.863-.014.551.551,0,0,1-.437-.648l.387-2.38Z" transform="translate(-2072.318 -1350.285)" fill="url(#linear-gradient-2)"/>
          <path id="Path_7562" data-name="Path 7562" d="M1983.486,1465.675a7.341,7.341,0,0,0,2.425-.346c0,.135,0,.272,0,.415a.268.268,0,0,1-.256.272l-7.459-.048a.341.341,0,0,1-.274-.5C1978.9,1465.552,1981.386,1465.733,1983.486,1465.675Z" transform="translate(-1969.693 -1383.832)" fill="url(#linear-gradient-3)"/>
          <path id="Path_7563" data-name="Path 7563" d="M1978.119,1444.957a.353.353,0,0,1,.03-.056,9.5,9.5,0,0,1,5.652-3.548l1.59-.05a7.632,7.632,0,0,1,.722,3.511,7.346,7.346,0,0,1-2.425.347C1981.588,1445.219,1979.1,1445.038,1978.119,1444.957Z" transform="translate(-1969.894 -1363.317)" fill="#24286d"/>
          <path id="Path_7564" data-name="Path 7564" d="M2017.855,1422.556c-.018.119-.236,1.92-.32,2.619a.346.346,0,0,1-.292.313,3.643,3.643,0,0,1-1.093-.017.47.47,0,0,1-.356-.472v-2.828Z" transform="translate(-2002.063 -1346.981)" fill="url(#linear-gradient-4)"/>
          <path id="Path_7565" data-name="Path 7565" d="M2026.812,1185.131s2.545,22.622,1.131,36.761a10.932,10.932,0,0,1-2.545-.283s-2.645-22.119-3.5-28.448a.213.213,0,0,0-.42-.013c-1.056,5.325-5.2,26.207-5.694,28.179a3.526,3.526,0,0,1-2.545,0s2.262-30.257,3.959-35.63Z" transform="translate(-1999.882 -1144.583)" fill="#f93"/>
          <path id="Path_7566" data-name="Path 7566" d="M2028.6,1001.606s-10.746-1.7-19.229.566l.565,8.766s2.262,12.159,3.959,17.532c0,0,6.5,1.131,9.615-.566,0,0,2.545-15.27,3.959-17.532C2027.467,1010.372,2028.881,1004.434,2028.6,1001.606Z" transform="translate(-1996.577 -987.356)" fill="#66f"/>
          <path id="Path_7567" data-name="Path 7567" d="M2066.338,942.024l1.146,8.741s-2.991,1.374-5.085-.059l.451-5.109Z" transform="translate(-2041.858 -937.003)" fill="url(#linear-gradient-5)"/>
          <path id="Path_7568" data-name="Path 7568" d="M2123.6,1005.174s16.684,18.1-2.969,25.026v-1.414s7.352-6.221,1.7-14.7C2122.329,1014.082,2123.036,1006.023,2123.6,1005.174Z" transform="translate(-2091.581 -990.924)" fill="#66f"/>
          <path id="Path_7569" data-name="Path 7569" d="M2091.576,1160.433s-2.545-1.7-3.676-1.131a1.749,1.749,0,0,0-1.131,1.414s.565,1.131,1.414.848,2.828.283,3.676,0C2091.859,1161.564,2092.142,1160.433,2091.576,1160.433Z" transform="translate(-2062.666 -1122.429)" fill="url(#linear-gradient-6)"/>
          <g id="Group_25041" data-name="Group 25041" transform="translate(0.714 6.523)">
            <path id="Path_7570" data-name="Path 7570" d="M1927.41,952.318l3.59,1.209a1.19,1.19,0,0,1,.769,1.127l-.187,5.991c.058.937-.715,1.764-1.446,1.544l-2.878-.98a.738.738,0,0,1-.469-.742l-.063-7.459C1926.722,952.577,1927.078,952.218,1927.41,952.318Z" transform="translate(-1926.726 -952.301)" fill="url(#linear-gradient-7)"/>
          </g>
          <path id="Path_7571" data-name="Path 7571" d="M1922.552,972.211s-1.124-3.6-.552-4.206,1.709-2.279,1.785-.911S1924.548,974.366,1922.552,972.211Z" transform="translate(-1921.838 -957.961)" fill="url(#linear-gradient-8)"/>
          <g id="Group_25042" data-name="Group 25042" transform="translate(16.204 0.289)">
            <path id="Path_7572" data-name="Path 7572" d="M2044.33,926.4c-.017.1,1.26,6.941,1.26,6.941l3.888-.812-.247-6.66S2044.611,924.66,2044.33,926.4Z" transform="translate(-2042.633 -923.148)" fill="url(#linear-gradient-9)"/>
            <path id="Path_7573" data-name="Path 7573" d="M2038.154,913.445a.571.571,0,0,1,.271.423l.4,3.445a.531.531,0,0,1,0,.156c-.048.286-.273,1.185-1.2.907a5.03,5.03,0,0,0-2.046-.349.57.57,0,0,0-.456.67,21.27,21.27,0,0,0,.8,3.04.568.568,0,0,0,.687.351,15.826,15.826,0,0,0,3.325-1.3.57.57,0,0,0,.288-.511c-.023-.927-.078-3.524.02-4.26.091-.683.917-1.088,1.31-1.243a.574.574,0,0,0,.325-.325,1.257,1.257,0,0,0-.791-1.805.571.571,0,0,1-.333-.722,1.262,1.262,0,0,0-.708-1.714,1.779,1.779,0,0,0-2.1.427.593.593,0,0,1-.7.1.377.377,0,0,0-.375,0,.553.553,0,0,1-.751-.242,1.462,1.462,0,0,0-1.668-.83c-1.741.268-1.97,2.188-1.531,3.323s2.31.737,3.254.184A2.064,2.064,0,0,1,2038.154,913.445Z" transform="translate(-2032.719 -909.641)" fill="#150e42"/>
            <path id="Path_7574" data-name="Path 7574" d="M2082.887,946.111s-.493-1.893.249-2.37,1.823-.2,1.56,1.239C2084.368,946.774,2082.887,946.111,2082.887,946.111Z" transform="translate(-2075.418 -938.573)" fill="url(#linear-gradient-10)"/>
          </g>
          <path id="Path_7575" data-name="Path 7575" d="M2030.565,910.157a.06.06,0,0,1-.055-.035c-.632-1.354.843-2.434.857-2.445a.061.061,0,1,1,.071.1c-.014.01-1.408,1.033-.819,2.3a.061.061,0,0,1-.055.086Z" transform="translate(-2014.495 -907.665)" fill="#fff"/>
        </g>
        <g id="Group_25055" data-name="Group 25055" transform="translate(160.335 314.649)">
          <g id="Group_25052" data-name="Group 25052">
            <path id="Path_7582" data-name="Path 7582" d="M412.53,1429.837s-.289,1.633-.43,3.249a1.113,1.113,0,0,0,1.065,1.206c2.152.09,6.756.264,8.408.19a.362.362,0,0,0,.319-.5h0a.809.809,0,0,0-.415-.437l-7.6-3.5Z" transform="translate(-394.157 -1351.591)" fill="url(#linear-gradient-11)"/>
            <path id="Path_7583" data-name="Path 7583" d="M413.449,1421.511l.232,1.953a2.424,2.424,0,0,0,2.242-.078l-.552-2.176Z" transform="translate(-395.312 -1344.225)" fill="url(#linear-gradient-12)"/>
            <path id="Path_7584" data-name="Path 7584" d="M379.353,1172.039c-.1.51-.537,25.449,2.129,36.625a.379.379,0,0,1-.223.441,6.61,6.61,0,0,1-2.171.441.654.654,0,0,1-.648-.469c-.762-2.593-4.413-15.585-4.89-28-.532-13.868,0-.472,0-.472l.312-8.572Z" transform="translate(-361.043 -1131.467)" fill="url(#linear-gradient-13)"/>
            <path id="Path_7585" data-name="Path 7585" d="M349.847,1435.666a11.746,11.746,0,0,0-.9,3.014.679.679,0,0,0,.6.813c.711.07,1.8.16,2.681.154a.677.677,0,0,0,.671-.756,5.711,5.711,0,0,0-1.334-3.133Z" transform="translate(-340.222 -1356.569)" fill="url(#linear-gradient-14)"/>
            <path id="Path_7586" data-name="Path 7586" d="M352.448,1417.808l.541,2.953a1.91,1.91,0,0,0,1.594.11l-.258-3.177Z" transform="translate(-343.226 -1341.222)" fill="url(#linear-gradient-15)"/>
            <path id="Path_7587" data-name="Path 7587" d="M337.536,1169.217c-2.18,13.158.473,32.521,1.368,36.311a.591.591,0,0,0,.477.449,3.966,3.966,0,0,0,1.705-.068.542.542,0,0,0,.389-.5c.12-3.064-.1-21.874,1.936-29.307a1.688,1.688,0,0,1,.651-.932l3.943-2.8.3-4.531Z" transform="translate(-329.777 -1127.88)" fill="url(#linear-gradient-16)"/>
            <g id="Group_25049" data-name="Group 25049" transform="translate(6.945 6.287)">
              <path id="Path_7588" data-name="Path 7588" d="M351.576,1000.438a61.433,61.433,0,0,0-13.743,1.716c-1.948,11.364-.34,24.472-.34,24.472,5.058,1.326,10.764-.811,10.764-.811.841-4.75,4.763-18.118,4.763-18.118a21.518,21.518,0,0,0,7.988-2.535,14.007,14.007,0,0,1-2.769-5.792A21.92,21.92,0,0,1,351.576,1000.438Z" transform="translate(-336.869 -990.319)" fill="url(#linear-gradient-17)"/>
              <path id="Path_7589" data-name="Path 7589" d="M495.736,937.93a1.25,1.25,0,0,0-1.454-.409c-.962,4.062-6,7.355-11.182,8.965a14.009,14.009,0,0,0,2.769,5.792C494.464,947.444,495.736,937.93,495.736,937.93Z" transform="translate(-461.729 -937.435)" fill="#f9b776"/>
            </g>
            <g id="Group_25050" data-name="Group 25050" transform="translate(39.498)">
              <path id="Path_7590" data-name="Path 7590" d="M560.917,901.4c.067.214-.711.539-1.168-.334-.016-.419-.271-2.211-.02-2.552a33.388,33.388,0,0,1,3.914-4.092.614.614,0,0,1,.077.854l-1.253,1.3a6.063,6.063,0,0,1,.731,1.446,1.754,1.754,0,0,1-.175,1.292c-.22.4-.52.911-.8,1.314A1.733,1.733,0,0,1,560.917,901.4Z" transform="translate(-559.619 -894.416)" fill="#f9b776"/>
              <path id="Path_7591" data-name="Path 7591" d="M566.593,914.981l-1.142.968-.358.964,1.018,1.129a13.137,13.137,0,0,1,.6-2.326C566.962,915.3,566.83,915.1,566.593,914.981Z" transform="translate(-564.293 -911.976)" fill="#dda064"/>
            </g>
            <path id="Path_7592" data-name="Path 7592" d="M304.447,1024.744l-2.506-6.327s-6.1,4.147-7.107,9.4a13.882,13.882,0,0,1,5.14,1.441C300.9,1027.177,304.447,1024.744,304.447,1024.744Z" transform="translate(-294.032 -1000.296)" fill="url(#linear-gradient-18)"/>
            <path id="Path_7593" data-name="Path 7593" d="M380,970.381l-2.079,6.012a.216.216,0,0,0,.1.261,4.886,4.886,0,0,0,5.069-.341,1.019,1.019,0,0,0,.47-.728l.673-5.2Z" transform="translate(-364.966 -959.28)" fill="#f9b776"/>
            <g id="Group_25051" data-name="Group 25051" transform="translate(11.088 2.409)">
              <path id="Path_7594" data-name="Path 7594" d="M392.037,932.284s2.283,4.3,1.99,6.033-3.122,1.611-5.593.2l-1.726-4.64Z" transform="translate(-383.568 -929.159)" fill="#f9b776"/>
              <path id="Path_7595" data-name="Path 7595" d="M370.195,917.984a.177.177,0,0,0,.077-.259,4.624,4.624,0,0,1-.635-1.349s-.411-.263,1.044-.611,3.625-.889,4.081-2.127c.445-1.207-.724-4.244-2.587-1.824a.177.177,0,0,1-.281,0,1.826,1.826,0,0,0-2.224-.723,1.675,1.675,0,0,0-1.147,1.618.176.176,0,0,1-.208.18A2.042,2.042,0,0,0,365.929,914a1.643,1.643,0,0,0,.118,1.972.176.176,0,0,1-.076.293,1.063,1.063,0,0,0-.75,1.213c.062,1.123,1.318,1.024,1.675.973a.177.177,0,0,1,.157.056,6.037,6.037,0,0,0,3.183,1.953.179.179,0,0,0,.187-.236l-.647-1.881a.178.178,0,0,1,.1-.22Z" transform="translate(-365.219 -910.903)" fill="#150e42"/>
              <path id="Path_7596" data-name="Path 7596" d="M390.82,957.953s-1.625-1.115-1.744-.176,1.464,1.36,2.248,1.01Z" transform="translate(-385.584 -950.606)" fill="#f9b776"/>
            </g>
            <path id="Path_7597" data-name="Path 7597" d="M290.188,1081.352s-4.171,9.5,6.025,10.892l1.39-1.159a6.071,6.071,0,0,1-2.317-8.342S292.273,1080.193,290.188,1081.352Z" transform="translate(-289.343 -1053.776)" fill="#f9b776"/>
          </g>
          <g id="Group_25054" data-name="Group 25054" transform="translate(6.616 32.562)">
            <g id="Group_25053" data-name="Group 25053" transform="translate(0.868)">
              <path id="Path_7598" data-name="Path 7598" d="M341.233,1117.246l3.59,1.209a1.189,1.189,0,0,1,.769,1.127l-.186,5.991c.058.937-.715,1.764-1.446,1.544l-2.878-.981a.739.739,0,0,1-.469-.742l-.063-7.459C340.545,1117.505,340.9,1117.146,341.233,1117.246Z" transform="translate(-340.549 -1117.229)" fill="url(#linear-gradient-19)"/>
            </g>
            <path id="Path_7599" data-name="Path 7599" d="M335.235,1134.966a4.873,4.873,0,0,1-.6-2.978c.173-1.643-.147-2.384.618-2.32s1.4.193,1.313,1S336.726,1136.613,335.235,1134.966Z" transform="translate(-334.612 -1127.846)" fill="#f9b776"/>
          </g>
        </g>
      </g>
    </g>
    <g id="Group_28309" data-name="Group 28309" transform="translate(-0.069 -3)">
      <g id="Group_28308" data-name="Group 28308" transform="translate(928.069 273)">
        <ellipse id="Ellipse_1654" data-name="Ellipse 1654" cx="31.93" cy="31.931" rx="31.93" ry="31.931" transform="translate(0)" fill="#ce2828"/>
        <ellipse id="Ellipse_1655" data-name="Ellipse 1655" cx="30.869" cy="30.869" rx="30.869" ry="30.869" transform="translate(1.062 1.062)" fill="#e25d45"/>
        <path id="Path_8235" data-name="Path 8235" d="M1050.14,2032.31h-.016a.293.293,0,0,1-.277-.307,28.964,28.964,0,0,1,.418-3.616.292.292,0,0,1,.575.1,28.373,28.373,0,0,0-.41,3.542A.292.292,0,0,1,1050.14,2032.31Z" transform="translate(-1046.665 -2001.599)" fill="#fff" opacity="0.78"/>
        <path id="Path_8236" data-name="Path 8236" d="M1143.013,1320.3a.292.292,0,0,1-.261-.424,28.667,28.667,0,0,1,25.715-15.833,29.048,29.048,0,0,1,5.193.467.292.292,0,1,1-.1.575,28.457,28.457,0,0,0-5.088-.458,28.086,28.086,0,0,0-25.193,15.511A.292.292,0,0,1,1143.013,1320.3Z" transform="translate(-1136.537 -1300.896)" fill="#fff" opacity="0.78"/>
        <ellipse id="Ellipse_1656" data-name="Ellipse 1656" cx="26.127" cy="26.127" rx="26.127" ry="26.127" transform="translate(6.476 6.476)" fill="#fff"/>
      </g>
    </g>
    <g id="Group_28311" data-name="Group 28311" transform="translate(-12185 3676)">
      <rect id="Rectangle_14288" data-name="Rectangle 14288" width="32.519" height="32.519" transform="translate(13129 -3390)" fill="none"/>
      <g id="Group_27704" data-name="Group 27704" transform="translate(13137.591 -3381.41)">
        <path id="Vector" d="M0,15.338,15.338,0" fill="none" stroke="#e25d44" stroke-linecap="round" stroke-linejoin="round" stroke-width="3.5"/>
        <path id="Vector-2" data-name="Vector" d="M15.338,15.338,0,0" fill="none" stroke="#e25d44" stroke-linecap="round" stroke-linejoin="round" stroke-width="3.5"/>
      </g>
    </g>
  </g>
</svg>
