<svg xmlns="http://www.w3.org/2000/svg" width="36" height="36" viewBox="0 0 36 36">
  <g id="Group_28510" data-name="Group 28510" transform="translate(-1271.154 -203)">
    <g id="Group_27930" data-name="Group 27930" transform="translate(1271 203)">
      <circle id="Ellipse_1633" data-name="Ellipse 1633" cx="18" cy="18" r="18" transform="translate(0.154)" fill="#fff"/>
      <g id="Group_23691" data-name="Group 23691" transform="translate(10.154 10)">
        <path id="plus_1_" data-name="plus (1)" d="M14.909,6.545H9.455V1.091A1.091,1.091,0,0,0,8.364,0H7.636A1.091,1.091,0,0,0,6.545,1.091V6.545H1.091A1.091,1.091,0,0,0,0,7.636v.727A1.091,1.091,0,0,0,1.091,9.455H6.545v5.455A1.091,1.091,0,0,0,7.636,16h.727a1.091,1.091,0,0,0,1.091-1.091V9.455h5.455A1.091,1.091,0,0,0,16,8.364V7.636A1.091,1.091,0,0,0,14.909,6.545Zm0,0" transform="translate(0 0)" fill="#45a273"/>
      </g>
    </g>
  </g>
</svg>
