<svg xmlns="http://www.w3.org/2000/svg" width="203" height="203" viewBox="0 0 203 203"><defs><style>.a{fill:#d8d8d8;}.b{fill:#fbfbfb;}</style></defs><g transform="translate(-0.24 0.293)"><circle class="a" cx="101.5" cy="101.5" r="101.5" transform="translate(0.24 -0.293)"/><g transform="translate(64.206 64.788)"><g transform="translate(0 0)"><g transform="translate(0)"><g transform="translate(15.805)"><path class="b" d="M132.62,0a21.829,21.829,0,1,0,21.829,21.829A21.887,21.887,0,0,0,132.62,0Z" transform="translate(-110.791)"/></g><g transform="translate(0 45.219)"><path class="b" d="M99.26,263.723a20.348,20.348,0,0,0-2.192-4A27.133,27.133,0,0,0,78.29,247.9a4.018,4.018,0,0,0-2.764.667,23.268,23.268,0,0,1-27.453,0,3.577,3.577,0,0,0-2.764-.667,26.936,26.936,0,0,0-18.778,11.82,23.463,23.463,0,0,0-2.192,4,2.027,2.027,0,0,0,.1,1.811,38.024,38.024,0,0,0,2.574,3.813,36.224,36.224,0,0,0,4.385,4.957,57.116,57.116,0,0,0,4.385,3.813,43.469,43.469,0,0,0,51.855,0,41.907,41.907,0,0,0,4.385-3.813,44.013,44.013,0,0,0,4.385-4.957,33.421,33.421,0,0,0,2.574-3.813A1.627,1.627,0,0,0,99.26,263.723Z" transform="translate(-24.165 -247.841)"/></g></g></g></g></g></svg>