<svg id="camera-to-take-photos" xmlns="http://www.w3.org/2000/svg" width="17.607" height="14.294" viewBox="0 0 17.607 14.294">
  <path id="Path_7346" data-name="Path 7346" d="M15.489,5.9H12.944V5.639a2.117,2.117,0,0,0-2.117-2.117H6.779A2.117,2.117,0,0,0,4.663,5.639V5.9H2.117A2.117,2.117,0,0,0,0,8.017V15.7a2.117,2.117,0,0,0,2.117,2.117H15.49A2.117,2.117,0,0,0,17.607,15.7V8.017A2.118,2.118,0,0,0,15.489,5.9ZM8.8,15.62a4,4,0,1,1,4-4A4,4,0,0,1,8.8,15.62Zm2.117-4A2.117,2.117,0,1,1,8.8,9.506,2.12,2.12,0,0,1,10.919,11.622Z" transform="translate(0 -3.522)" fill="#f93"/>
</svg>
