<svg xmlns="http://www.w3.org/2000/svg" width="92" height="92" viewBox="0 0 92 92">
  <g id="Group_41847" data-name="Group 41847" transform="translate(-1059 -223)">
    <g id="Intersection_28" data-name="Intersection 28" transform="translate(1003 223)" fill="none">
      <path d="M102,92a46,46,0,1,1,46-46A46,46,0,0,1,102,92Z" stroke="none"/>
      <path d="M 101.9998016357422 91 C 108.0752410888672 91 113.968391418457 89.81034851074219 119.5155792236328 87.46410369873047 C 124.8740234375 85.19768524169922 129.6866149902344 81.95288848876953 133.8196563720703 77.81984710693359 C 137.9526824951172 73.68681335449219 141.1974792480469 68.87423706054688 143.4638977050781 63.51577377319336 C 145.8101501464844 57.96860122680664 146.9998016357422 52.07543563842773 146.9998016357422 46 C 146.9998016357422 39.92456436157227 145.8101501464844 34.03139877319336 143.4638977050781 28.48422431945801 C 141.1974792480469 23.12576293945312 137.9526824951172 18.31318664550781 133.8196563720703 14.18015003204346 C 129.6866149902344 10.04711246490479 124.8740234375 6.80231237411499 119.5155792236328 4.535900115966797 C 113.968391418457 2.189650058746338 108.0752410888672 1 101.9998016357422 1 C 95.92442321777344 1 90.03131103515625 2.189650058746338 84.48413848876953 4.535900115966797 C 79.12570190429688 6.802324771881104 74.31310272216797 10.04711246490479 70.1800537109375 14.18015003204346 C 66.04700469970703 18.31318664550781 62.80217742919922 23.12577438354492 60.53573989868164 28.48422431945801 C 58.1894645690918 34.03141403198242 56.99980163574219 39.92457580566406 56.99980163574219 46 C 56.99980163574219 52.07542419433594 58.1894645690918 57.96858596801758 60.53573989868164 63.51577377319336 C 62.80217742919922 68.87422180175781 66.04700469970703 73.68681335449219 70.1800537109375 77.81984710693359 C 74.31310272216797 81.95288848876953 79.12570190429688 85.19767761230469 84.48413848876953 87.46410369873047 C 90.03131103515625 89.81034851074219 95.92442321777344 91 101.9998016357422 91 M 101.9998016357422 92 C 76.59486389160156 92 55.99980163574219 71.40522766113281 55.99980163574219 46 C 55.99980163574219 20.59477424621582 76.59486389160156 0 101.9998016357422 0 C 127.4050140380859 0 147.9998016357422 20.59477424621582 147.9998016357422 46 C 147.9998016357422 71.40522766113281 127.4050140380859 92 101.9998016357422 92 Z" stroke="none" fill="#fdecee"/>
    </g>
    <g id="Intersection_30" data-name="Intersection 30" transform="translate(1012 232)" fill="none">
      <path d="M93,74a37,37,0,1,1,37-37A37,37,0,0,1,93,74Z" stroke="none"/>
      <path d="M 92.99980163574219 73 C 97.8602294921875 73 102.5747451782227 72.04830932617188 107.0123519897461 70.17135620117188 C 111.2990951538086 68.35823822021484 115.1491851806641 65.76236724853516 118.455680847168 62.45587921142578 C 121.7621688842773 59.14939117431641 124.3580322265625 55.29930114746094 126.1711578369141 51.0125617980957 C 128.0481109619141 46.5749397277832 128.9998016357422 41.86043167114258 128.9998016357422 37 C 128.9998016357422 32.13956069946289 128.0481109619141 27.4250602722168 126.1711578369141 22.98744010925293 C 124.3580322265625 18.7007007598877 121.7621688842773 14.85060977935791 118.455680847168 11.5441198348999 C 115.1491851806641 8.237629890441895 111.2990951538086 5.641759872436523 107.0123596191406 3.828629970550537 C 102.5747451782227 1.951689958572388 97.8602294921875 1 92.99980163574219 1 C 88.13941955566406 1 83.42494201660156 1.951689958572388 78.98733520507812 3.828629970550537 C 74.70059967041016 5.641759872436523 70.85050964355469 8.237629890441895 67.54399871826172 11.5441198348999 C 64.23749542236328 14.85062026977539 61.6416130065918 18.70071029663086 59.82846069335938 22.98744010925293 C 57.95149993896484 27.4250602722168 56.99980163574219 32.13956832885742 56.99980163574219 37 C 56.99980163574219 41.86043167114258 57.95149993896484 46.57492828369141 59.82846069335938 51.0125617980957 C 61.6416130065918 55.29928970336914 64.23749542236328 59.14937973022461 67.54399871826172 62.45587921142578 C 70.85050964355469 65.76236724853516 74.70059967041016 68.35823059082031 78.98733520507812 70.17137145996094 C 83.42494201660156 72.04830932617188 88.13941955566406 73 92.99980163574219 73 M 92.99980163574219 74 C 72.56539154052734 74 55.99980163574219 57.43463134765625 55.99980163574219 37 C 55.99980163574219 16.56535911560059 72.56539154052734 0 92.99980163574219 0 C 113.4344253540039 0 129.9998016357422 16.56535911560059 129.9998016357422 37 C 129.9998016357422 57.43463134765625 113.4344253540039 74 92.99980163574219 74 Z" stroke="none" fill="#fdecee"/>
    </g>
    <path id="Intersection_32" data-name="Intersection 32" d="M86,60a30,30,0,1,1,30-30A30,30,0,0,1,86,60Z" transform="translate(1019 239)" fill="#fdecee"/>
  </g>
</svg>
