<svg xmlns="http://www.w3.org/2000/svg" width="12" height="12" viewBox="0 0 12 12"><defs><style>.a{fill:none;}.b{fill:#a3a3a3;}</style></defs><g transform="translate(-883 -171)"><rect class="a" width="12" height="12" transform="translate(883 171)"/><g transform="translate(885 173)"><path class="b" d="M5.375,4.421,8.669,1.127a.483.483,0,0,0,0-.681L8.381.157a.483.483,0,0,0-.682,0L4.405,3.451,1.111.157a.483.483,0,0,0-.681,0L.141.445a.482.482,0,0,0,0,.681L3.435,4.421.141,7.715a.483.483,0,0,0,0,.682l.289.289a.483.483,0,0,0,.681,0L4.405,5.391,7.7,8.685a.478.478,0,0,0,.341.141h0a.478.478,0,0,0,.341-.141L8.669,8.4a.483.483,0,0,0,0-.681Z" transform="translate(0 -0.016)"/></g></g></svg>