<svg xmlns="http://www.w3.org/2000/svg" width="23" height="23" viewBox="0 0 23 23">
  <g id="Group_26092" data-name="Group 26092" transform="translate(-177 -411)">
    <g id="Group_25460" data-name="Group 25460" transform="translate(-1079 -708)">
      <circle id="Ellipse_1564" data-name="Ellipse 1564" cx="11.5" cy="11.5" r="11.5" transform="translate(1256 1119)" fill="#b5b5b5"/>
    </g>
    <g id="Group_25462" data-name="Group 25462" transform="translate(-524.359 -617.95)">
      <path id="Path_7381" data-name="Path 7381" d="M708.994,1035.95a.636.636,0,0,0-.634.635v4.952h0v1.126h0v1.237a.635.635,0,0,0,1.271,0v-4.952h0v-1.127h0v-1.236A.636.636,0,0,0,708.994,1035.95Z" fill="#fff"/>
      <path id="Path_7382" data-name="Path 7382" d="M713.016,1035.95a.636.636,0,0,0-.634.635v4.952h0v1.126h0v1.237a.635.635,0,0,0,1.271,0v-4.952h0v-1.127h0v-1.236A.637.637,0,0,0,713.016,1035.95Z" fill="#fff"/>
      <path id="Path_7383" data-name="Path 7383" d="M717.053,1035.95a.636.636,0,0,0-.634.635v4.952h0v1.126h0v1.237a.635.635,0,0,0,1.271,0v-4.952h0v-1.127h0v-1.236A.637.637,0,0,0,717.053,1035.95Z" fill="#fff"/>
    </g>
  </g>
</svg>
