<svg xmlns="http://www.w3.org/2000/svg" width="23" height="23" viewBox="0 0 23 23">
  <g id="Group_25302" data-name="Group 25302" transform="translate(-1752 -818.98)">
    <g id="Group_25289" data-name="Group 25289" transform="translate(174 622.98)">
      <circle id="Ellipse_1564" data-name="Ellipse 1564" cx="11.5" cy="11.5" r="11.5" transform="translate(1578 196)" fill="#b5b5b5"/>
    </g>
    <g id="_002-users" data-name="002-users" transform="translate(1759 800.487)">
      <g id="Group_12008" data-name="Group 12008" transform="translate(0.001 25.494)">
        <path id="Path_3932" data-name="Path 3932" d="M7.933,29.753a2.442,2.442,0,0,0-3.039-3.812,2.443,2.443,0,0,0-3.042,3.812A3.471,3.471,0,0,0,0,32.837v1.048a.349.349,0,0,0,.349.349H9.436a.349.349,0,0,0,.349-.349V32.837A3.471,3.471,0,0,0,7.933,29.753Zm-2.416-.247c-.035-.017-.07-.031-.1-.05l.007-.011a2.451,2.451,0,0,0,.374-.682l.011-.029a2.465,2.465,0,0,0,.093-.36c0-.018.006-.035.008-.054a2.231,2.231,0,0,0,0-.751c0-.018-.005-.035-.008-.054a2.466,2.466,0,0,0-.093-.36L5.8,27.126a2.452,2.452,0,0,0-.374-.682l-.007-.011a1.745,1.745,0,1,1,1.593,3.1l-.081.035a1.713,1.713,0,0,1-.266.083l-.053.009a1.748,1.748,0,0,1-.308.031c-.046,0-.093,0-.14-.008a.264.264,0,0,1-.052,0,1.765,1.765,0,0,1-.571-.168C5.532,29.508,5.524,29.509,5.517,29.506Zm3.569,4.03H6.99v-.7c0-.109-.006-.218-.016-.325,0-.031-.008-.063-.011-.094-.009-.077-.02-.154-.035-.23q-.009-.049-.02-.1-.025-.117-.058-.231c-.007-.025-.014-.051-.022-.075a3.463,3.463,0,0,0-.421-.883l-.014-.02q-.09-.134-.193-.259l0,0a3.172,3.172,0,0,0-.225-.251h.014a2.474,2.474,0,0,0,.3.021H6.3a2.473,2.473,0,0,0,.275-.018l.086-.013q.111-.017.22-.044l.063-.016a2.379,2.379,0,0,0,.28-.1,2.778,2.778,0,0,1,1.86,2.634v.7Z" transform="translate(-0.001 -25.494)" fill="#fff"/>
      </g>
    </g>
  </g>
</svg>
