<svg xmlns="http://www.w3.org/2000/svg" width="23" height="23" viewBox="0 0 23 23">
  <g id="Group_25996" data-name="Group 25996" transform="translate(-1368.5 -11974.281)">
    <circle id="Ellipse_1611" data-name="Ellipse 1611" cx="11.5" cy="11.5" r="11.5" transform="translate(1368.5 11974.281)" fill="#fff"/>
    <path id="disabled" d="M0,4.249A4.249,4.249,0,1,0,4.249,0,4.254,4.254,0,0,0,0,4.249ZM4.249,7.738a3.487,3.487,0,0,1-2.72-5.671l4.9,4.9A3.471,3.471,0,0,1,4.249,7.738ZM7.738,4.249a3.472,3.472,0,0,1-.77,2.182l-4.9-4.9a3.486,3.486,0,0,1,5.671,2.72Z" transform="translate(1376 11981.199)" fill="#172b37" stroke="#172b37" stroke-width="0.4"/>
  </g>
</svg>
