<svg xmlns="http://www.w3.org/2000/svg" width="30" height="30" viewBox="0 0 30 30">
  <g id="Group_26881" data-name="Group 26881" transform="translate(-536.493 -477.908)">
    <g id="Group_26872" data-name="Group 26872" transform="translate(-1006.57 -763.578)">
      <circle id="Ellipse_1536" data-name="Ellipse 1536" cx="15" cy="15" r="15" transform="translate(1543.063 1241.486)" fill="#efefef"/>
    </g>
    <g id="Group_26873" data-name="Group 26873" transform="translate(-6572.507 4251.908)">
      <g id="_001-logout" data-name="001-logout" transform="translate(7120 -3764.004)">
        <path id="Path_3990" data-name="Path 3990" d="M6.124,5.311a.408.408,0,0,0-.408.408V7.353a.409.409,0,0,1-.408.408H4.083V1.637A.823.823,0,0,0,3.527.861L3.406.82h1.9a.409.409,0,0,1,.408.408V2.453a.408.408,0,1,0,.816,0V1.229A1.226,1.226,0,0,0,5.307,0H.919A.321.321,0,0,0,.875.013C.855.011.836,0,.817,0A.817.817,0,0,0,0,.82V8.169a.823.823,0,0,0,.556.776l2.457.819a.845.845,0,0,0,.253.038.817.817,0,0,0,.816-.817V8.577H5.307A1.226,1.226,0,0,0,6.532,7.353V5.719a.408.408,0,0,0-.408-.408Zm0,0" transform="translate(0 0)" fill="#424e55"/>
        <path id="Path_3991" data-name="Path 3991" d="M281.7,108.418l-1.633-1.633a.408.408,0,0,0-.7.289V108.3H277.74a.408.408,0,1,0,0,.816h1.633v1.225a.408.408,0,0,0,.7.289L281.7,109A.408.408,0,0,0,281.7,108.418Zm0,0" transform="translate(-272.025 -104.62)" fill="#424e55"/>
      </g>
    </g>
  </g>
</svg>
