<svg xmlns="http://www.w3.org/2000/svg" width="23" height="23" viewBox="0 0 23 23">
  <g id="Group_26091" data-name="Group 26091" transform="translate(-313 -411)">
    <g id="Group_25463" data-name="Group 25463" transform="translate(-943 -708)">
      <circle id="Ellipse_1564" data-name="Ellipse 1564" cx="11.5" cy="11.5" r="11.5" transform="translate(1256 1119)" fill="#b5b5b5"/>
    </g>
    <g id="Group_25465" data-name="Group 25465" transform="translate(-403.773 -617.95)">
      <path id="Path_7369" data-name="Path 7369" d="M728.438,1041.7a.3.3,0,0,0,.222-.1l2.156-2.253a.308.308,0,0,0-.222-.521h-1.129v-2.36a.514.514,0,0,0-.513-.513h-1.027a.515.515,0,0,0-.513.513v2.36h-1.129a.308.308,0,0,0-.307.309.3.3,0,0,0,.085.212l2.155,2.253A.3.3,0,0,0,728.438,1041.7Z" fill="#fff"/>
      <path id="Path_7384" data-name="Path 7384" d="M732.469,1040.554a.637.637,0,0,0-.637.635v2.076h-6.787v-2.073a.636.636,0,1,0-1.271,0v2.71h0a.623.623,0,0,0,.3.531.616.616,0,0,0,.329.106h8.059a.621.621,0,0,0,.383-.141.587.587,0,0,0,.067-.044c.011-.011.016-.027.026-.039a.632.632,0,0,0,.161-.41h0v-2.71A.638.638,0,0,0,732.469,1040.554Z" fill="#fff"/>
    </g>
  </g>
</svg>
