<svg xmlns="http://www.w3.org/2000/svg" width="18" height="16" viewBox="0 0 18 16">
<g transform="translate(-1396 -411)">
<rect class="a" fill="none" width="18" height="16" transform="translate(1396 411)"/>
<g transform="translate(1396 411.653)">
<g transform="translate(0 0)">
<path class="b" fill="#9c9c9c" d="M231.147,160.065l2.466,2.466.012-.129a2.351,2.351,0,0,0-2.349-2.349Z" transform="translate(-222.664 -155.355)"/>
<path class="b" fill="#9c9c9c" d="M152.775,66.011a3.916,3.916,0,0,1,3.915,3.915,3.854,3.854,0,0,1-.278,1.429l2.29,2.29a9.3,9.3,0,0,0,2.689-3.719,9.265,9.265,0,0,0-8.616-5.872,9.156,9.156,0,0,0-3.12.548l1.691,1.687A3.934,3.934,0,0,1,152.775,66.011Z" transform="translate(-144.163 -62.88)"/>
<path class="b" fill="#9c9c9c" d="M.783,33.051l1.785,1.785.356.356A9.273,9.273,0,0,0,0,39.1a9.249,9.249,0,0,0,12.045,5.21l.333.333,2.282,2.286,1-.994L1.781,32.053Zm4.33,4.326,1.21,1.21a2.481,2.481,0,0,0-.059.513,2.351,2.351,0,0,0,2.349,2.349,2.413,2.413,0,0,0,.509-.059l1.21,1.21a3.851,3.851,0,0,1-1.719.415,3.889,3.889,0,0,1-3.5-5.637Z" transform="translate(0 -32.053)"/>
</g>
</g>
</g>
</svg>