<svg xmlns="http://www.w3.org/2000/svg" width="18" height="16" viewBox="0 0 18 16">
<g transform="translate(-1323 -496)">
<rect class="a" fill='none' width="18" height="16" transform="translate(1323 496)"/>
<g transform="translate(1323.004 498)"><g transform="translate(0 0)">
<path class="b" fill="#9c9c9c" d="M173.016,170.667a2.349,2.349,0,1,0,2.349,2.349A2.351,2.351,0,0,0,173.016,170.667Z" transform="translate(-164.404 -167.144)"/>
<path class="b" fill="#9c9c9c" d="M8.612,74.667A9.259,9.259,0,0,0,0,80.539a9.252,9.252,0,0,0,17.224,0A9.256,9.256,0,0,0,8.612,74.667Zm0,9.787a3.915,3.915,0,1,1,3.915-3.915A3.916,3.916,0,0,1,8.612,84.454Z" transform="translate(0 -74.667)"/>
</g>
</g>
</g>
</svg>