<svg xmlns="http://www.w3.org/2000/svg" width="14.704" height="14.471" viewBox="0 0 14.704 14.471">
  <g id="Group_27289" data-name="Group 27289" transform="translate(-450.533 -755)">
    <path id="Path_7369" data-name="Path 7369" d="M729.422,1043.994a.425.425,0,0,0,.311-.14l3.018-3.154a.431.431,0,0,0-.311-.729h-1.58v-3.3a.72.72,0,0,0-.718-.718H728.7a.721.721,0,0,0-.718.718v3.3h-1.58a.431.431,0,0,0-.43.432.425.425,0,0,0,.119.3l3.016,3.154A.428.428,0,0,0,729.422,1043.994Z" transform="translate(-267.634 -274.523)" fill="#fff"/>
    <path id="Subtraction_117" data-name="Subtraction 117" d="M14816.837-5943.429h-6.5a.339.339,0,0,1-.339-.338,4.455,4.455,0,0,1,1.287-3.137,4.356,4.356,0,0,1,3.118-1.317h1.358a4.327,4.327,0,0,1,1.409.235,4.983,4.983,0,0,0-.731,2.6,4.972,4.972,0,0,0,.395,1.952Zm-1.75-5.47a3.055,3.055,0,0,1-3.052-3.051,3.055,3.055,0,0,1,3.052-3.051,3.053,3.053,0,0,1,3.047,3.051A3.053,3.053,0,0,1,14815.087-5948.9Z" transform="translate(-14359.467 6710.001)" fill="#fff"/>
  </g>
</svg>
