<svg xmlns="http://www.w3.org/2000/svg" width="23" height="23" viewBox="0 0 23 23">
  <g id="Group_26093" data-name="Group 26093" transform="translate(-58 -411)">
    <g id="Group_25269" data-name="Group 25269" transform="translate(-1198 -708)">
      <circle id="Ellipse_1564" data-name="Ellipse 1564" cx="11.5" cy="11.5" r="11.5" transform="translate(1256 1119)" fill="#b5b5b5"/>
    </g>
    <g id="Group_25459" data-name="Group 25459" transform="translate(-625.279 -617.743)">
      <path id="Path_7378" data-name="Path 7378" d="M700.362,1035.95H689.2a.635.635,0,1,0,0,1.271h11.161a.635.635,0,0,0,0-1.271Z" fill="#fff"/>
      <path id="Path_7379" data-name="Path 7379" d="M698.754,1039.661h-7.946a.635.635,0,1,0,0,1.271h7.945a.635.635,0,0,0,0-1.271Z" fill="#fff"/>
      <path id="Path_7380" data-name="Path 7380" d="M695.666,1043.265H693.9a.635.635,0,0,0,0,1.271h1.769a.635.635,0,0,0,0-1.271Z" fill="#fff"/>
    </g>
  </g>
</svg>
