<svg xmlns="http://www.w3.org/2000/svg" width="38" height="38" viewBox="0 0 38 38">
  <g id="Group_24380" data-name="Group 24380" transform="translate(7164 211)">
    <g id="_001-menu" data-name="001-menu" transform="translate(-7151.67 -198.668)">
      <g id="Group_11956" data-name="Group 11956" transform="translate(0.001)">
        <g id="Group_11955" data-name="Group 11955" transform="translate(0)">
          <path id="Path_3900" data-name="Path 3900" d="M5.425,0H1.138A1.138,1.138,0,0,0,0,1.137V5.424A1.138,1.138,0,0,0,1.138,6.56H5.425A1.138,1.138,0,0,0,6.561,5.424V1.137A1.138,1.138,0,0,0,5.425,0Z" transform="translate(-0.001)" fill="#fff"/>
          <path id="Path_3901" data-name="Path 3901" d="M171.93,0h-4.287a1.138,1.138,0,0,0-1.137,1.137V5.424a1.138,1.138,0,0,0,1.137,1.137h4.287a1.138,1.138,0,0,0,1.137-1.137V1.137A1.138,1.138,0,0,0,171.93,0Z" transform="translate(-158.107)" fill="#fff"/>
          <path id="Path_3902" data-name="Path 3902" d="M5.425,166.507H1.138A1.138,1.138,0,0,0,0,167.644v4.287a1.138,1.138,0,0,0,1.137,1.137H5.425a1.138,1.138,0,0,0,1.137-1.137v-4.287A1.138,1.138,0,0,0,5.425,166.507Z" transform="translate(-0.001 -158.107)" fill="#fff"/>
          <path id="Path_3903" data-name="Path 3903" d="M171.93,166.507h-4.287a1.138,1.138,0,0,0-1.137,1.137v4.287a1.138,1.138,0,0,0,1.137,1.137h4.287a1.138,1.138,0,0,0,1.137-1.137v-4.287A1.138,1.138,0,0,0,171.93,166.507Z" transform="translate(-158.107 -158.107)" fill="#fff"/>
        </g>
      </g>
    </g>
  </g>
</svg>
