<svg xmlns="http://www.w3.org/2000/svg" width="23" height="23" viewBox="0 0 23 23">
  <g id="Group_27088" data-name="Group 27088" transform="translate(-1326 -149)">
    <g id="Group_27084" data-name="Group 27084" transform="translate(70 -970)">
      <circle id="Ellipse_1564" data-name="Ellipse 1564" cx="11.5" cy="11.5" r="11.5" transform="translate(1256 1119)" fill="#f2f2f4"/>
    </g>
    <g id="Group_27085" data-name="Group 27085" transform="translate(681 -67)">
      <path id="Path_8159" data-name="Path 8159" d="M0,0H11V11H0Z" transform="translate(651 222)" fill="none"/>
      <path id="Union_1" data-name="Union 1" d="M-9579.205,8.152c0-3.874.036-3.687-.082-3.86l-2.631-3.581a.453.453,0,0,1,.37-.712h6.957a.416.416,0,0,1,.34.657s.059-.078-2.105,2.868h0l-.562.767c-.118.171-.084.1-.084,2.806,0,.459-.281.558-1.445,1.433a.471.471,0,0,1-.283.1A.476.476,0,0,1-9579.205,8.152Z" transform="translate(10235 223.701)" fill="#396"/>
    </g>
  </g>
</svg>
