<svg xmlns="http://www.w3.org/2000/svg" width="194.203" height="199.333" viewBox="0 0 194.203 199.333">
  <g id="Group_23492" data-name="Group 23492" transform="matrix(-0.993, 0.122, -0.122, -0.993, 198.34, 179.491)">
    <g id="Group_23373" data-name="Group 23373" transform="translate(18.701 52.018)" opacity="0.54">
      <path id="Path_3680" data-name="Path 3680" d="M10.928,93.231a.916.916,0,0,1-.123-1.055l5.368-9.747a48.471,48.471,0,0,1-5.281-14.789L.574,63.493A.914.914,0,0,1,0,62.6L.669,49.268a.915.915,0,0,1,.658-.832l10.681-3.095a48.484,48.484,0,0,1,6.733-14.188L14.375,20.918a.914.914,0,0,1,.228-1.037l9.9-8.954a.916.916,0,0,1,1.055-.123L35.3,16.173a48.473,48.473,0,0,1,14.79-5.281L54.239.573A.914.914,0,0,1,55.133,0L68.464.669a.913.913,0,0,1,.832.659L72.39,12.009a48.465,48.465,0,0,1,14.188,6.733l10.235-4.367a.915.915,0,0,1,1.037.228l8.954,9.9a.915.915,0,0,1,.123,1.054L101.558,35.3a48.446,48.446,0,0,1,5.282,14.79l10.318,4.146a.915.915,0,0,1,.573.894l-.668,13.331a.914.914,0,0,1-.658.832L105.722,72.39a48.43,48.43,0,0,1-6.733,14.188l4.367,10.235a.913.913,0,0,1-.228,1.037l-9.9,8.954a.915.915,0,0,1-1.054.123l-9.747-5.368a48.47,48.47,0,0,1-14.79,5.281l-4.147,10.319a.912.912,0,0,1-.893.571l-13.331-.667a.915.915,0,0,1-.832-.659l-3.095-10.681A48.471,48.471,0,0,1,31.153,98.99l-10.235,4.367a.913.913,0,0,1-1.037-.228Z" transform="translate(0 0)" fill="#eeeef2"/>
      <path id="Path_3681" data-name="Path 3681" d="M13.045,26.108a13.052,13.052,0,1,0-3.816-.573A13.073,13.073,0,0,0,13.045,26.108ZM13.038,2.4a10.709,10.709,0,0,1,3.135.473A10.653,10.653,0,1,1,2.867,9.935h0A10.67,10.67,0,0,1,13.038,2.4Z" transform="translate(45.814 45.809)" fill="#fff"/>
      <path id="Path_3682" data-name="Path 3682" d="M33.425,66.811A33.446,33.446,0,0,0,66.769,35.077q.043-.849.043-1.69A33.406,33.406,0,0,0,.042,31.734Q0,32.578,0,33.422a33.615,33.615,0,0,0,.437,5.413L2.8,38.447A31.181,31.181,0,0,1,2.4,33.422q0-.784.039-1.568h0a31.008,31.008,0,0,1,61.977,1.521q0,.789-.04,1.583a31.014,31.014,0,0,1-48.2,24.232l-1.334,1.992a33.358,33.358,0,0,0,16.9,5.589Q32.583,66.811,33.425,66.811Z" transform="translate(25.685 25.288)" fill="#fff"/>
    </g>
    <path id="Path_3921" data-name="Path 3921" d="M4.725,49.518l3.431-5.206a27.156,27.156,0,0,1-2.293-8.495L.284,33.043A.512.512,0,0,1,0,32.518L.969,25.1a.513.513,0,0,1,.405-.436l6.1-1.254a27.143,27.143,0,0,1,4.391-7.625L9.883,9.877a.513.513,0,0,1,.173-.569l5.927-4.562a.51.51,0,0,1,.594-.022l5.206,3.431a27.137,27.137,0,0,1,8.495-2.292L33.052.284A.511.511,0,0,1,33.576,0l7.416.965a.512.512,0,0,1,.436.405l1.254,6.1a27.157,27.157,0,0,1,7.625,4.391l5.911-1.985a.512.512,0,0,1,.568.173l4.562,5.926a.511.511,0,0,1,.022.595l-3.431,5.206a27.153,27.153,0,0,1,2.293,8.495l5.578,2.774a.514.514,0,0,1,.281.525l-.966,7.416a.511.511,0,0,1-.4.436l-6.1,1.254a27.162,27.162,0,0,1-4.391,7.625l1.985,5.91a.513.513,0,0,1-.173.569l-5.926,4.562a.515.515,0,0,1-.595.022l-5.2-3.431a27.169,27.169,0,0,1-8.495,2.292l-2.774,5.579a.513.513,0,0,1-.525.28L25.1,65.126a.513.513,0,0,1-.436-.405l-1.254-6.1a27.167,27.167,0,0,1-7.625-4.391l-5.91,1.985a.513.513,0,0,1-.569-.173L4.747,50.112A.513.513,0,0,1,4.725,49.518Z" transform="translate(116.454 7.714)" fill="#eeeef2" opacity="0.54"/>
    <path id="Path_3919" data-name="Path 3919" d="M7.841,15.683A7.841,7.841,0,1,0,.55,4.956h0A7.849,7.849,0,0,0,7.841,15.683ZM7.847,2.4A5.442,5.442,0,1,1,2.78,5.838,5.426,5.426,0,0,1,7.847,2.4Z" transform="translate(141.661 32.918)" fill="#fff"/>
    <g id="Group_23374" data-name="Group 23374" transform="translate(0 0)">
      <g id="Group_23372" data-name="Group 23372" transform="translate(43.959 76.515)" opacity="0.38">
        <path id="Path_3674" data-name="Path 3674" d="M3.723,2.887A.8.8,0,0,0,4.031,1.35C3.062.948,2.089.519,1.137.075A.8.8,0,1,0,.462,1.523c.971.454,1.967.893,2.955,1.3A.8.8,0,0,0,3.723,2.887Z" transform="translate(0 102.585)" fill="#d7d6e2"/>
        <path id="Path_3675" data-name="Path 3675" d="M20.163,98.423c1.34,0,2.7-.036,4.032-.106a.8.8,0,0,0,.757-.84.811.811,0,0,0-.84-.757c-2.129.112-4.281.133-6.43.064h-.027a.8.8,0,0,0-.026,1.6Q18.9,98.425,20.163,98.423Zm-13.009-1.1a.8.8,0,0,0,.134-1.587C5.176,95.37,3.061,94.916,1,94.38a.8.8,0,1,0-.4,1.547c2.1.548,4.264,1.012,6.42,1.381A.8.8,0,0,0,7.154,97.319Zm27.474-.282a.765.765,0,0,0,.152-.015c2.137-.414,4.286-.928,6.386-1.526a.8.8,0,1,0-.438-1.538c-2.057.587-4.161,1.09-6.252,1.495a.8.8,0,0,0,.151,1.584Zm16.249-5.105a.791.791,0,0,0,.324-.069c2-.884,3.976-1.865,5.886-2.914a.8.8,0,1,0-.77-1.4c-1.87,1.027-3.809,1.987-5.764,2.853a.8.8,0,0,0,.324,1.53Zm14.7-8.593a.8.8,0,0,0,.477-.158c1.749-1.3,3.463-2.7,5.094-4.144a.8.8,0,0,0-1.06-1.2c-1.6,1.416-3.276,2.782-4.989,4.058a.8.8,0,0,0,.478,1.44Zm12.434-11.63a.8.8,0,0,0,.608-.279c1.42-1.66,2.782-3.4,4.052-5.167a.8.8,0,1,0-1.3-.932c-1.243,1.733-2.578,3.435-3.967,5.06a.8.8,0,0,0,.607,1.319Zm9.548-14.09a.8.8,0,0,0,.709-.428c1.012-1.929,1.953-3.928,2.8-5.938a.8.8,0,1,0-1.473-.619c-.827,1.969-1.748,3.925-2.739,5.814a.8.8,0,0,0,.707,1.17Zm6.164-15.867a.8.8,0,0,0,.772-.6c.556-2.107,1.027-4.264,1.4-6.414a.8.8,0,0,0-1.576-.274c-.366,2.1-.828,4.217-1.371,6.28a.8.8,0,0,0,.569.977A.821.821,0,0,0,93.727,41.751Zm2.48-16.845a.8.8,0,0,0,.8-.771q.051-1.392.051-2.774c0-1.263-.031-2.54-.093-3.794a.789.789,0,0,0-.838-.759.8.8,0,0,0-.759.838c.06,1.229.091,2.479.091,3.716q0,1.354-.049,2.716a.8.8,0,0,0,.77.827ZM94.913,7.923a.8.8,0,0,0,.786-.949c-.408-2.142-.916-4.292-1.507-6.393a.8.8,0,1,0-1.539.434c.579,2.056,1.075,4.162,1.475,6.259A.8.8,0,0,0,94.913,7.923Z" transform="translate(12.929 12.886)" fill="#d7d6e2"/>
        <path id="Path_3676" data-name="Path 3676" d="M2.148,4.494A.8.8,0,0,0,2.88,3.374C2.452,2.4,1.993,1.416,1.517.446a.8.8,0,0,0-1.435.706C.549,2.1,1,3.065,1.416,4.017A.8.8,0,0,0,2.148,4.494Z" transform="translate(100.617 0)" fill="#d7d6e2"/>
      </g>
      <g id="Group_23370" data-name="Group 23370" transform="translate(0 33.946)" opacity="0.38">
        <path id="Path_3677" data-name="Path 3677" d="M3.823,2.636A.8.8,0,0,0,4.1,1.086C3.086.715,2.058.363,1.043.039A.8.8,0,0,0,.557,1.562c.994.317,2,.662,2.992,1.026A.8.8,0,0,0,3.823,2.636Z" transform="translate(99.401 3.537)" fill="#d7d6e2"/>
        <path id="Path_3678" data-name="Path 3678" d="M4.714,101.888a.8.8,0,0,0,.759-1.053C4.8,98.845,4.214,96.8,3.716,94.756a.8.8,0,0,0-1.554.378c.509,2.088,1.114,4.177,1.794,6.21A.8.8,0,0,0,4.714,101.888ZM1.178,85.508c.027,0,.054,0,.082,0a.8.8,0,0,0,.714-.876c-.214-2.092-.34-4.217-.376-6.318a.788.788,0,0,0-.813-.785A.8.8,0,0,0,0,78.338c.038,2.145.167,4.316.385,6.452A.8.8,0,0,0,1.178,85.508Zm.141-16.76a.8.8,0,0,0,.793-.706c.246-2.091.582-4.192,1-6.246a.8.8,0,1,0-1.566-.318c-.427,2.1-.77,4.242-1.021,6.377a.8.8,0,0,0,.7.888A.938.938,0,0,0,1.32,68.748ZM5.087,52.425a.8.8,0,0,0,.755-.534c.7-1.983,1.484-3.96,2.344-5.876a.8.8,0,0,0-1.459-.654c-.878,1.956-1.684,3.975-2.395,6a.8.8,0,0,0,.49,1.019A.784.784,0,0,0,5.087,52.425Zm7.258-15.089a.8.8,0,0,0,.679-.375c1.114-1.781,2.318-3.535,3.578-5.216a.8.8,0,0,0-1.279-.958c-1.286,1.717-2.516,3.508-3.653,5.327a.8.8,0,0,0,.253,1.1A.785.785,0,0,0,12.345,37.336ZM22.737,24.2a.8.8,0,0,0,.569-.237c1.477-1.5,3.035-2.948,4.63-4.312a.8.8,0,1,0-1.04-1.215c-1.628,1.394-3.219,2.876-4.727,4.4a.8.8,0,0,0,.568,1.361ZM35.745,13.638a.8.8,0,0,0,.432-.127c1.771-1.141,3.607-2.219,5.457-3.2a.8.8,0,1,0-.75-1.412c-1.89,1-3.766,2.1-5.574,3.27a.8.8,0,0,0,.434,1.472Zm15-7.477a.793.793,0,0,0,.276-.049c1.972-.724,4-1.374,6.027-1.929a.8.8,0,0,0-.422-1.543c-2.071.568-4.142,1.231-6.156,1.971a.8.8,0,0,0,.275,1.549Zm39.371-3.5a.8.8,0,0,0,.137-1.587C88.143.708,85.987.425,83.842.234A.8.8,0,0,0,83.7,1.827c2.1.187,4.212.464,6.273.824A.826.826,0,0,0,90.113,2.663Zm-23.093-.5a.769.769,0,0,0,.1-.007c2.083-.272,4.2-.458,6.3-.554A.8.8,0,0,0,73.352,0c-2.143.1-4.308.289-6.435.567a.8.8,0,0,0,.1,1.592Z" transform="translate(0 0)" fill="#d7d6e2"/>
        <path id="Path_3679" data-name="Path 3679" d="M2.282,4.43a.8.8,0,0,0,.7-1.185c-.51-.926-1-1.869-1.466-2.8a.8.8,0,0,0-1.431.712c.473.952.977,1.914,1.5,2.86A.8.8,0,0,0,2.282,4.43Z" transform="translate(7.906 109.933)" fill="#d7d6e2"/>
      </g>
      <g id="Group_23371" data-name="Group 23371" transform="translate(121.933 33.524)" opacity="0.38">
        <path id="Path_3685" data-name="Path 3685" d="M3.261,3.637A.8.8,0,0,0,3.746,2.2C2.917,1.57,2.106.9,1.333.205A.8.8,0,0,0,.265,1.395c.8.721,1.649,1.42,2.512,2.078A.8.8,0,0,0,3.261,3.637Z" transform="translate(0 36.28)" fill="#d7d6e2"/>
        <path id="Path_3686" data-name="Path 3686" d="M16.812,34.781h.01a40.738,40.738,0,0,0,6.351-.58.8.8,0,1,0-.27-1.575,39.278,39.278,0,0,1-6.1.556.8.8,0,0,0,.01,1.6ZM6.735,33.614a.8.8,0,0,0,.192-1.575A39.768,39.768,0,0,1,1.874,30.42c-.256-.1-.512-.205-.765-.312a.8.8,0,0,0-.62,1.474c.264.111.528.218.8.324a41.524,41.524,0,0,0,5.258,1.685A.83.83,0,0,0,6.735,33.614Zm26.008-2.355a.791.791,0,0,0,.327-.07,41.057,41.057,0,0,0,5.6-3.054.8.8,0,1,0-.873-1.34,39.484,39.484,0,0,1-5.378,2.936.8.8,0,0,0,.327,1.528ZM45.96,21.7a.8.8,0,0,0,.591-.261,40.641,40.641,0,0,0,3.914-5.035.8.8,0,0,0-1.335-.879,39.168,39.168,0,0,1-3.759,4.837.8.8,0,0,0,.59,1.338Zm8.3-14.045a.8.8,0,0,0,.755-.54A41.1,41.1,0,0,0,56.61.939.8.8,0,0,0,55.035.662,39.62,39.62,0,0,1,53.5,6.6.8.8,0,0,0,54,7.612.811.811,0,0,0,54.26,7.655Z" transform="translate(11.25 13.344)" fill="#d7d6e2"/>
        <path id="Path_3687" data-name="Path 3687" d="M1.188,4.77l.067,0a.8.8,0,0,0,.731-.862C1.9,2.83,1.763,1.742,1.589.671A.8.8,0,0,0,.011.928C.179,1.958.307,3,.392,4.036A.8.8,0,0,0,1.188,4.77Z" transform="translate(66.353 0)" fill="#d7d6e2"/>
      </g>
      <g id="Group_23369" data-name="Group 23369" transform="translate(108.912 0)" opacity="0.38">
        <path id="Path_3688" data-name="Path 3688" d="M3.426,3.419a.8.8,0,0,0,.482-1.438C3.044,1.331,2.142.705,1.228.124A.8.8,0,1,0,.371,1.475c.878.557,1.745,1.157,2.574,1.783A.794.794,0,0,0,3.426,3.419Z" transform="translate(61.328 6.126)" fill="#d7d6e2"/>
        <path id="Path_3689" data-name="Path 3689" d="M.8,36.643a.8.8,0,0,0,.791-.7,39.193,39.193,0,0,1,1.2-5.906A.8.8,0,0,0,1.255,29.6,40.856,40.856,0,0,0,.006,35.744a.8.8,0,0,0,.695.892A.707.707,0,0,0,.8,36.643ZM5.915,21.428a.8.8,0,0,0,.692-.4,39.39,39.39,0,0,1,3.411-4.967.8.8,0,1,0-1.245-1,40.853,40.853,0,0,0-3.549,5.169.8.8,0,0,0,.691,1.2ZM16.581,9.444a.79.79,0,0,0,.477-.159A39.553,39.553,0,0,1,22.149,6.06a.8.8,0,1,0-.75-1.412A41.232,41.232,0,0,0,16.1,8a.8.8,0,0,0,.479,1.44ZM53.1,3.461a.8.8,0,0,0,.25-1.559A40.92,40.92,0,0,0,47.263.4.8.8,0,1,0,47,1.977a39.444,39.444,0,0,1,5.853,1.444A.805.805,0,0,0,53.1,3.461ZM31.094,2.6a.782.782,0,0,0,.191-.023,39.409,39.409,0,0,1,5.947-.98.8.8,0,0,0,.726-.865A.792.792,0,0,0,37.094,0a40.974,40.974,0,0,0-6.188,1.019A.8.8,0,0,0,31.094,2.6Z" transform="translate(0 0)" fill="#d7d6e2"/>
        <path id="Path_3690" data-name="Path 3690" d="M1.334,4.748A.847.847,0,0,0,1.5,4.732a.8.8,0,0,0,.617-.947C1.9,2.761,1.724,1.722,1.592.7A.8.8,0,0,0,.007.9C.144,1.969.328,3.05.553,4.114A.8.8,0,0,0,1.334,4.748Z" transform="translate(0.027 45.058)" fill="#d7d6e2"/>
      </g>
    </g>
    <path id="Path_3920" data-name="Path 3920" d="M19.258,38.492A19.272,19.272,0,0,0,38.328,21.73a19.468,19.468,0,0,0,.164-2.523A19.248,19.248,0,0,0,7.508,4,19.118,19.118,0,0,0,.163,16.763a19.356,19.356,0,0,0-.11,3.928c0,.055.008.112.013.167l2.39-.2Q2.4,19.971,2.4,19.276a16.968,16.968,0,0,1,.143-2.2,16.845,16.845,0,0,1,30.054-8.1,16.72,16.72,0,0,1,3.5,10.241A16.852,16.852,0,0,1,8.8,32.47L7.314,34.349a19.288,19.288,0,0,0,11.944,4.144Z" transform="translate(130.389 21.422)" fill="#fff"/>
  </g>
</svg>
