<svg xmlns="http://www.w3.org/2000/svg" width="40" height="40" viewBox="0 0 40 40">
  <g id="Group_24394" data-name="Group 24394" transform="translate(-1137.1 -484.5)">
    <path id="_44873867-young-executive-business-woman-success-and-education-background-" data-name="44873867-young-executive-business-woman-success-and-education-background-" d="M20,0A20,20,0,1,1,0,20,20,20,0,0,1,20,0Z" transform="translate(1137.1 484.5)" fill="#243844"/>
    <path id="_004-settings" data-name="004-settings" d="M17.164,7.108l-1.423-.181a7.151,7.151,0,0,0-.431-1.04l.879-1.131a1.125,1.125,0,0,0-.092-1.5L14.906,2.067a1.128,1.128,0,0,0-1.5-.1l-1.13.879a7.125,7.125,0,0,0-1.04-.431L11.052,1A1.133,1.133,0,0,0,9.928,0h-1.7A1.133,1.133,0,0,0,7.108,1L6.928,2.419a7.043,7.043,0,0,0-1.04.431L4.757,1.971a1.126,1.126,0,0,0-1.5.092L2.067,3.255a1.128,1.128,0,0,0-.1,1.5L2.85,5.888a7.068,7.068,0,0,0-.431,1.04L1,7.108A1.133,1.133,0,0,0,0,8.233v1.7a1.133,1.133,0,0,0,1,1.124l1.423.181a7.151,7.151,0,0,0,.431,1.04L1.971,13.4a1.125,1.125,0,0,0,.092,1.5l1.192,1.192a1.129,1.129,0,0,0,1.5.1l1.131-.879a6.986,6.986,0,0,0,1.04.431l.181,1.42a1.133,1.133,0,0,0,1.124,1h1.7a1.133,1.133,0,0,0,1.124-1l.181-1.423a7.151,7.151,0,0,0,1.04-.431l1.131.879a1.125,1.125,0,0,0,1.5-.092l1.192-1.192a1.127,1.127,0,0,0,.1-1.5l-.879-1.131a6.986,6.986,0,0,0,.431-1.04l1.42-.181a1.133,1.133,0,0,0,1-1.124v-1.7a1.132,1.132,0,0,0-1-1.124ZM9.08,12.864A3.784,3.784,0,1,1,12.864,9.08,3.788,3.788,0,0,1,9.08,12.864Z" transform="translate(1148.02 495.42)" fill="#fff"/>
  </g>
</svg>
