<svg xmlns="http://www.w3.org/2000/svg" width="15.025" height="15.025" viewBox="0 0 15.025 15.025">
  <g id="Group_41826" data-name="Group 41826" transform="translate(-4 -4.818)">
    <g id="vuesax_bold_lock" data-name="vuesax/bold/lock" transform="translate(4 4.818)">
      <path id="Vector" d="M2.041,1.02A1.02,1.02,0,1,1,1.02,0,1.02,1.02,0,0,1,2.041,1.02Z" transform="translate(6.492 8.821)" fill="#f93"/>
      <path id="Vector-2" data-name="Vector" d="M10.192,4.714V3.932C10.192,2.241,9.785,0,6.26,0S2.329,2.241,2.329,3.932v.783C.576,4.933,0,5.822,0,8.007V9.171c0,2.567.783,3.349,3.349,3.349H9.171c2.567,0,3.349-.783,3.349-3.349V8.007C12.521,5.822,11.945,4.933,10.192,4.714ZM6.26,10.48A1.891,1.891,0,1,1,8.151,8.589,1.893,1.893,0,0,1,6.26,10.48ZM3.349,4.658H3.205V3.932C3.205,2.1,3.725.876,6.26.876S9.315,2.1,9.315,3.932v.732H3.349Z" transform="translate(1.252 1.252)" fill="#f93"/>
      <path id="Vector-3" data-name="Vector" d="M0,0H15.025V15.025H0Z" transform="translate(15.025 15.025) rotate(180)" fill="none" opacity="0"/>
    </g>
  </g>
</svg>
