<svg xmlns="http://www.w3.org/2000/svg" width="13.998" height="11.998" viewBox="0 0 13.998 11.998">
  <g id="Group_41956" data-name="Group 41956" transform="translate(-892.002 -131.001)">
    <path id="Intersection_83" data-name="Intersection 83" d="M.179,12A10.112,10.112,0,0,1,10.105,0h.154A10.076,10.076,0,0,1,14,.716V12Z" transform="translate(892 131)" fill="#f93"/>
    <g id="Group_41955" data-name="Group 41955" transform="translate(98 -115)">
      <g id="Group_41858" data-name="Group 41858" transform="translate(798.473 248.8)">
        <path id="calendar-star_9586170" d="M0,5.945A1.566,1.566,0,0,0,1.564,7.509h4.38A1.566,1.566,0,0,0,7.509,5.945V3.129H0Zm2.627-1.04h.7l.186-.714a.255.255,0,0,1,.5,0l.186.714h.7a.221.221,0,0,1,.229.212.325.325,0,0,1-.177.271l-.489.272.217.592a.277.277,0,0,1-.094.317h0a.277.277,0,0,1-.336,0L3.765,6.19l-.487.376a.277.277,0,0,1-.336,0h0a.277.277,0,0,1-.094-.317l.217-.592-.489-.272A.325.325,0,0,1,2.4,5.117.221.221,0,0,1,2.627,4.905ZM7.509,2.19V2.5H0V2.19A1.566,1.566,0,0,1,1.564.626h.313V.313a.313.313,0,1,1,.626,0V.626h2.5V.313a.313.313,0,1,1,.626,0V.626h.313A1.566,1.566,0,0,1,7.509,2.19Z" transform="translate(0 0)" fill="#fff"/>
        <path id="Vector" d="M2.056.375l.128.261a.574.574,0,0,0,.367.275l.174.028c.523.087.646.472.27.853l-.16.16A.58.58,0,0,0,2.7,2.42l.023.1c.142.633-.193.876-.743.546l-.119-.069a.563.563,0,0,0-.513,0l-.119.069C.676,3.4.342,3.149.488,2.516l.023-.1a.58.58,0,0,0-.133-.468l-.16-.165c-.376-.38-.252-.766.27-.853L.662.907A.57.57,0,0,0,1.029.632L1.158.371C1.405-.124,1.808-.124,2.056.375Z" transform="translate(2.147 3.755)" fill="#f93"/>
      </g>
      <rect id="Rectangle_22274" data-name="Rectangle 22274" width="9" height="9" transform="translate(798 248)" fill="none"/>
    </g>
  </g>
</svg>
