<svg xmlns="http://www.w3.org/2000/svg" width="23" height="23" viewBox="0 0 23 23">
  <g id="Group_25546" data-name="Group 25546" transform="translate(-88 -163)">
    <g id="Group_25269" data-name="Group 25269" transform="translate(-1168 -956)">
    </g>
    <g id="Group_25531" data-name="Group 25531" transform="translate(12582 -6678.207)">
      <path id="Path_7379" data-name="Path 7379" d="M702.96,1039.661H691.12a.947.947,0,1,0,0,1.894h11.838a.947.947,0,0,0,0-1.894Z" transform="translate(-13177.171 5812.075)" fill="#7f8a90"/>
      <path id="Path_7418" data-name="Path 7418" d="M702.96,1039.661H691.12a.947.947,0,1,0,0,1.894h11.838a.947.947,0,0,0,0-1.894Z" transform="translate(-13177.171 5817.445)" fill="#7f8a90"/>
      <path id="Path_7417" data-name="Path 7417" d="M702.96,1039.661H691.12a.947.947,0,1,0,0,1.894h11.838a.947.947,0,0,0,0-1.894Z" transform="translate(-13177.171 5806.546)" fill="#7f8a90"/>
      <path id="Union_2" data-name="Union 2" d="M1.05,1.894H1V0h.05a.947.947,0,1,1,0,1.894Zm-.1,0h0A.947.947,0,1,1,.95,0H1V1.894Z" transform="translate(-12492 6846.207)" fill="#7f8a90" stroke="rgba(0,0,0,0)" stroke-width="1"/>
      <path id="Union_3" data-name="Union 3" d="M1.05,1.894H1V0h.05a.947.947,0,1,1,0,1.894Zm-.1,0h0A.947.947,0,1,1,.95,0H1V1.894Z" transform="translate(-12492 6851.736)" fill="#7f8a90" stroke="rgba(0,0,0,0)" stroke-width="1"/>
      <path id="Union_4" data-name="Union 4" d="M1.05,1.894H1V0h.05a.947.947,0,1,1,0,1.894Zm-.1,0h0A.947.947,0,1,1,.95,0H1V1.894Z" transform="translate(-12492 6857.106)" fill="#7f8a90" stroke="rgba(0,0,0,0)" stroke-width="1"/>
    </g>
  </g>
</svg>
