<svg xmlns="http://www.w3.org/2000/svg" width="18" height="18" viewBox="0 0 18 18">
  <g id="Group_41864" data-name="Group 41864" transform="translate(-1833 -23)">
    <rect id="Rectangle_21510" data-name="Rectangle 21510" width="18" height="18" transform="translate(1833 23)" fill="none"/>
    <g id="logout-svgrepo-com_1_" data-name="logout-svgrepo-com (1)" transform="translate(1817.4 24)">
      <g id="Group_41854" data-name="Group 41854" transform="translate(17.6 0)">
        <g id="Group_41853" data-name="Group 41853" transform="translate(0 0)">
          <path id="Path_11652" data-name="Path 11652" d="M130.642,132.894l.006-.006a.242.242,0,0,0,.025-.035s0-.006.006-.009.016-.025.022-.038a.011.011,0,0,1,0-.006c.006-.013.013-.025.019-.041s0,0,0-.006.009-.028.016-.044,0-.006,0-.006a.223.223,0,0,0,.009-.044.029.029,0,0,1,0-.016c0-.013,0-.025.006-.038a.458.458,0,0,0,0-.108.159.159,0,0,0-.006-.038.029.029,0,0,0,0-.016c0-.016-.006-.028-.009-.044s0-.006,0-.006a.25.25,0,0,0-.016-.044s0,0,0-.006-.013-.029-.019-.041a.011.011,0,0,0,0-.006.236.236,0,0,0-.022-.038s0-.006-.006-.009a.331.331,0,0,0-.025-.035l-.006-.006a.447.447,0,0,0-.038-.041l-3.132-3.129a.544.544,0,0,0-.77.77l2.2,2.2h-8.762a.543.543,0,1,0,0,1.086h8.765l-2.188,2.188a.543.543,0,1,0,.766.769l3.113-3.113A.6.6,0,0,1,130.642,132.894Z" transform="translate(-116.37 -124.794)" fill="#fff" stroke="#fff" stroke-width="0.2"/>
          <path id="Path_11653" data-name="Path 11653" d="M20.548,1.086H24.6A.543.543,0,1,0,24.6,0H20.548A2.953,2.953,0,0,0,17.6,2.948v9.617a2.953,2.953,0,0,0,2.948,2.948h3.987a.543.543,0,1,0,0-1.086H20.548a1.865,1.865,0,0,1-1.862-1.862V2.948A1.865,1.865,0,0,1,20.548,1.086Z" transform="translate(-17.6 0)" fill="#fff" stroke="#fff" stroke-width="0.2"/>
        </g>
      </g>
    </g>
  </g>
</svg>
