<svg xmlns="http://www.w3.org/2000/svg" width="23" height="23" viewBox="0 0 23 23">
  <g id="Group_24860" data-name="Group 24860" transform="translate(-1267.256 -1155.257)">
    <g id="Group_24456" data-name="Group 24456" transform="translate(1267 1155)">
      <circle id="Ellipse_1564" data-name="Ellipse 1564" cx="11.5" cy="11.5" r="11.5" transform="translate(0.256 0.257)" fill="#fff"/>
    </g>
    <g id="magnifying-glass_1_" data-name="magnifying-glass (1)" transform="translate(1274.256 1162.257)">
      <path id="Path_7345" data-name="Path 7345" d="M6.011,1.03A3.522,3.522,0,1,0,5.53,6.41a.741.741,0,0,0,.2.373l2,2A.744.744,0,0,0,8.783,7.731l-2-2a.744.744,0,0,0-.373-.2A3.525,3.525,0,0,0,6.011,1.03ZM5.38,5.38a2.629,2.629,0,1,1,0-3.718A2.632,2.632,0,0,1,5.38,5.38Z" transform="translate(-0.001 0)" fill="#172b37"/>
    </g>
  </g>
</svg>
