<svg xmlns="http://www.w3.org/2000/svg" width="23.045" height="25.501" viewBox="0 0 23.045 25.501">
  <g id="Group_25220" data-name="Group 25220" transform="translate(-399.832 -673.644)">
    <g id="_001-block" data-name="001-block" transform="translate(411.702 687.969)">
      <g id="Group_24329" data-name="Group 24329">
        <path id="Path_4111" data-name="Path 4111" d="M5.588,0a5.588,5.588,0,1,0,5.588,5.588A5.586,5.586,0,0,0,5.588,0ZM1.118,5.588A4.466,4.466,0,0,1,8.326,2.059L2.059,8.326A4.454,4.454,0,0,1,1.118,5.588Zm4.47,4.47A4.454,4.454,0,0,1,2.85,9.117L9.117,2.85a4.466,4.466,0,0,1-3.529,7.209Z" fill="#FFF"/>
      </g>
    </g>
    <path id="Subtraction_64" data-name="Subtraction 64" d="M3097.127,1996.356h-10.472a.655.655,0,0,1-.655-.654,8.593,8.593,0,0,1,2.49-6.062,8.406,8.406,0,0,1,6.025-2.541h2.619a8.344,8.344,0,0,1,3.167.618,7.008,7.008,0,0,0-3.174,8.637Zm-1.3-10.567a5.895,5.895,0,1,1,5.894-5.894A5.9,5.9,0,0,1,3095.824,1985.789Z" transform="translate(-2686.167 -1300.356)" fill="#FFF"/>
  </g>
</svg>
