<svg xmlns="http://www.w3.org/2000/svg" width="12" height="12" viewBox="0 0 12 12">
  <g id="Group_24330" data-name="Group 24330" transform="translate(-1290 -1001)">
    <rect id="Rectangle_12916" data-name="Rectangle 12916" width="12" height="12" transform="translate(1290 1001)" fill="none"/>
    <g id="_001-user" data-name="001-user" transform="translate(1261 1002)">
      <g id="Group_11997" data-name="Group 11997" transform="translate(32.697)">
        <g id="Group_11996" data-name="Group 11996" transform="translate(0)">
          <path id="Path_3921" data-name="Path 3921" d="M123.545,0a2.545,2.545,0,1,0,2.545,2.545A2.548,2.548,0,0,0,123.545,0Z" transform="translate(-121)" fill="#00101a"/>
        </g>
      </g>
      <g id="Group_11999" data-name="Group 11999" transform="translate(31 5.655)">
        <g id="Group_11998" data-name="Group 11998" transform="translate(0)">
          <path id="Path_3922" data-name="Path 3922" d="M38.408,301.1a3.628,3.628,0,0,0-2.6-1.1H34.676a3.628,3.628,0,0,0-2.6,1.1A3.709,3.709,0,0,0,31,303.714a.283.283,0,0,0,.283.283H39.2a.283.283,0,0,0,.283-.283A3.709,3.709,0,0,0,38.408,301.1Z" transform="translate(-31 -300)" fill="#00101a"/>
        </g>
      </g>
    </g>
  </g>
</svg>
