<svg xmlns="http://www.w3.org/2000/svg" width="23.046" height="25.501" viewBox="0 0 23.046 25.501">
  <g id="Group_25221" data-name="Group 25221" transform="translate(-362.832 -673.644)">
    <path id="Path_7332" data-name="Path 7332" d="M268.317,322.433a.44.44,0,0,0-.614.1l-2.168,3.029a.251.251,0,0,1-.362.019l-1.4-1.368a.44.44,0,0,0-.614.63l1.4,1.37,0,0a1.134,1.134,0,0,0,.78.312l.075,0a1.134,1.134,0,0,0,.806-.42l.015-.02,2.177-3.041A.44.44,0,0,0,268.317,322.433Z" transform="translate(114.527 369.117)" fill="#fff"/>
    <path id="Subtraction_66" data-name="Subtraction 66" d="M3091.588,1985.176a5.588,5.588,0,1,1,5.588-5.588A5.594,5.594,0,0,1,3091.588,1985.176Zm-2.721-2.046h0a4.465,4.465,0,0,0,6.268-6.255l0-.014-.814-.813-.009.005a4.43,4.43,0,0,0-2.729-.935,4.466,4.466,0,0,0-3.529,7.208l.016-.016v.009l.774.813.019,0Z" transform="translate(-2711.298 -1286.031)" fill="#fff"/>
    <path id="Subtraction_65" data-name="Subtraction 65" d="M3097.127,1996.356h-10.472a.655.655,0,0,1-.655-.654,8.593,8.593,0,0,1,2.49-6.062,8.406,8.406,0,0,1,6.025-2.541h2.619a8.344,8.344,0,0,1,3.167.618,7.008,7.008,0,0,0-3.174,8.637Zm-1.3-10.567a5.895,5.895,0,1,1,5.894-5.894A5.9,5.9,0,0,1,3095.824,1985.789Z" transform="translate(-2723.167 -1300.356)" fill="#fff"/>
  </g>
</svg>
