<svg xmlns="http://www.w3.org/2000/svg" width="134" height="28" viewBox="0 0 200 41.791">
  <g id="Group_23370" data-name="Group 23370" transform="translate(-7010.445 -2467)">
    <rect id="Rectangle_12489" data-name="Rectangle 12489" width="200" height="41.791" transform="translate(7010.445 2467)" fill="none"/>
    <path id="Path_94" data-name="Path 94" d="M282.483,285.364h5.365c5.718,0,9.212-3.788,9.212-8.9,0-4.932-3.283-8.684-9.248-8.684h-9.777V294.8h4.447Zm0-4v-9.613h4.765c3.318,0,5.295,1.715,5.295,4.789,0,3-1.906,4.824-5.295,4.824ZM300.556,294.8H304.9v-8.327c0-3.717.812-6.933,4.518-6.933a6.578,6.578,0,0,1,2.012.322l.671-4.074a8.109,8.109,0,0,0-2.471-.357,5.066,5.066,0,0,0-5.083,3.288h-.035l-.388-2.93h-3.565Zm22.237.357a9.544,9.544,0,0,0,9.777-9.935,9.743,9.743,0,1,0-9.777,9.935Zm0-3.86c-3.036,0-5.33-2.537-5.33-6,0-3.538,2.33-5.968,5.365-5.968,3.071,0,5.33,2.466,5.33,5.932,0,3.5-2.329,6.039-5.365,6.039ZM334.44,279.5h3.318v15.3h4.377V279.5h4.8v-3.717h-4.8v-1.858c0-2.43.635-3.681,3.036-3.681a15.052,15.052,0,0,1,2.294.25l.529-3.5a15.916,15.916,0,0,0-3.53-.464c-4.271,0-6.706,2.287-6.706,6.611v2.644H334.44Zm31.026,13.008L363.49,289.8a8.685,8.685,0,0,1-5.118,1.751,5.238,5.238,0,0,1-5.577-4.968h13.8c.035-.357.07-1.036.07-1.644,0-5.36-3.389-9.506-8.86-9.506-5.224,0-9.389,3.824-9.389,9.971,0,6.29,4.342,9.72,9.671,9.72a11.267,11.267,0,0,0,7.377-2.609Zm-12.636-8.934a4.915,4.915,0,0,1,4.977-4.5,4.541,4.541,0,0,1,4.624,4.5Zm18.072,6.111-1.941,2.645a11.036,11.036,0,0,0,7.342,2.787c4.165,0,7.448-1.858,7.448-5.861,0-6.968-9.848-4.61-9.848-8.291,0-1.429,1.447-2.037,2.965-2.037a8.969,8.969,0,0,1,4.659,1.43l1.624-2.752a10.575,10.575,0,0,0-6.53-2.18c-3.812,0-6.989,1.823-6.989,5.825,0,7,9.777,4.432,9.777,8.184,0,1.537-1.659,2.109-3.318,2.109a8.845,8.845,0,0,1-5.189-1.858ZM385.621,279.5H388.9v8.9c0,5,4.024,6.754,7.906,6.754l.529-3.609c-2.576-.5-4.094-1.108-4.094-4.431V279.5h4.589v-3.717h-4.589V269.1l-4.341.822v5.86h-3.282Zm24,15.652a9.536,9.536,0,0,0,9.742-9.935,9.726,9.726,0,1,0-9.742,9.935Zm0-3.86c-3.071,0-5.33-2.537-5.33-6,0-3.538,2.294-5.968,5.365-5.968,3.036,0,5.33,2.466,5.33,5.932,0,3.5-2.365,6.039-5.365,6.039Z" transform="translate(6791.081 2206.434)" fill="#396"/>
    <path id="Path_95" data-name="Path 95" d="M140.831,249.855A22.03,22.03,0,0,0,118.876,272v18.373l17.648-10.183a9.2,9.2,0,1,1,8.577,0l11.9,6.765A22.246,22.246,0,0,0,162.75,272a22.022,22.022,0,0,0-21.919-22.147Z" transform="translate(6891.569 2217.145)" fill="#396" fill-rule="evenodd"/>
  </g>
</svg>
