<svg xmlns="http://www.w3.org/2000/svg" width="20" height="20" viewBox="0 0 20 20">
  <g id="vuesax_bold_refresh-circle" data-name="vuesax/bold/refresh-circle" transform="translate(-684 -508)">
    <g id="refresh-circle" transform="translate(684 508)">
      <path id="Vector" d="M0,0H20V20H0Z" transform="translate(20 20) rotate(180)" fill="none" opacity="0"/>
      <path id="Vector-2" data-name="Vector" d="M8.667,0a8.667,8.667,0,1,0,8.667,8.667A8.67,8.67,0,0,0,8.667,0ZM3.987,8a4.7,4.7,0,0,1,7.644-3V4.177a.65.65,0,0,1,1.3,0V6.491a.655.655,0,0,1-.65.65H9.967a.65.65,0,1,1,0-1.3h.65a3.421,3.421,0,0,0-5.356,2.34.645.645,0,0,1-.641.555.355.355,0,0,1-.1-.009A.64.64,0,0,1,3.987,8Zm8.034,4.021a4.7,4.7,0,0,1-6.327.312v.815a.65.65,0,1,1-1.3,0V10.833a.655.655,0,0,1,.65-.65H7.358a.65.65,0,1,1,0,1.3h-.65a3.421,3.421,0,0,0,5.356-2.34.649.649,0,0,1,.737-.555.66.66,0,0,1,.555.737A4.754,4.754,0,0,1,12.021,12.021Z" transform="translate(1.333 1.333)" fill="#f4906a"/>
    </g>
  </g>
</svg>
