<svg xmlns="http://www.w3.org/2000/svg" width="24.182" height="24.182" viewBox="0 0 24.182 24.182">
  <g id="Group_41846" data-name="Group 41846" transform="translate(-960 -149)">
    <g id="Group_26710" data-name="Group 26710" transform="translate(-275.999 -172.909)">
      <circle id="Ellipse_1545" data-name="Ellipse 1545" cx="12.091" cy="12.091" r="12.091" transform="translate(1235.999 321.909)" fill="#396"/>
    </g>
    <g id="Group_41835" data-name="Group 41835" transform="translate(413 -129)">
      <g id="vuesax_bold_calendar-tick" data-name="vuesax/bold/calendar-tick" transform="translate(552 283)">
        <g id="calendar-tick">
          <path id="Vector" d="M0,0H13.739V13.739H0Z" fill="none" opacity="0"/>
          <path id="Vector-2" data-name="Vector" d="M7.849,1.322V.429a.429.429,0,0,0-.859,0v.859H3.269V.429a.429.429,0,1,0-.859,0v.893A2.432,2.432,0,0,0,0,3.755a.288.288,0,0,0,.286.3H9.973a.284.284,0,0,0,.286-.3A2.432,2.432,0,0,0,7.849,1.322Z" transform="translate(1.74 0.716)" fill="#fff"/>
          <path id="Vector-3" data-name="Vector" d="M9.732,0H.572A.574.574,0,0,0,0,.572V4.1A2.567,2.567,0,0,0,2.862,6.961H5.685a.571.571,0,0,0,.544-.756,3.334,3.334,0,0,1-.212-.962A3.154,3.154,0,0,1,9.165,2.1a2.81,2.81,0,0,1,.492.04.57.57,0,0,0,.653-.561v-1A.584.584,0,0,0,9.732,0ZM3.555,4.792a.581.581,0,0,1-.813,0,.581.581,0,0,1,0-.813.591.591,0,0,1,.189-.12.572.572,0,0,1,.624.12.581.581,0,0,1,0,.813Zm0-2-.086.069a.433.433,0,0,1-.1.052.364.364,0,0,1-.1.034.86.86,0,0,1-.114.011.567.567,0,0,1-.572-.572.6.6,0,0,1,.166-.406.578.578,0,0,1,.521-.155.364.364,0,0,1,.1.034.433.433,0,0,1,.1.052l.086.069a.581.581,0,0,1,0,.813Zm2,0a.572.572,0,0,1-.979-.406.6.6,0,0,1,.166-.406.6.6,0,0,1,.813,0,.581.581,0,0,1,0,.813Z" transform="translate(1.717 5.633)" fill="#fff"/>
        </g>
      </g>
      <path id="Vector-4" data-name="Vector" d="M2.293,0A2.293,2.293,0,1,0,4.587,2.293,2.3,2.3,0,0,0,2.293,0Zm1,3.112a.171.171,0,0,1-.149.085.154.154,0,0,1-.087-.025l-.711-.424a.676.676,0,0,1-.307-.541v-.94a.172.172,0,0,1,.344,0v.94a.339.339,0,0,0,.14.245l.711.424A.17.17,0,0,1,3.291,3.112Z" transform="translate(560.566 291.576)" fill="#fff"/>
    </g>
  </g>
</svg>
