<svg xmlns="http://www.w3.org/2000/svg" width="23" height="23" viewBox="0 0 23 23">
  <g id="Group_25995" data-name="Group 25995" transform="translate(-1341.5 -11974.281)">
    <circle id="Ellipse_1612" data-name="Ellipse 1612" cx="11.5" cy="11.5" r="11.5" transform="translate(1341.5 11974.281)" fill="#fff"/>
    <g id="refresh-page-option" transform="translate(1348.766 11981.176)">
      <g id="Group_25921" data-name="Group 25921" transform="translate(0 0.003)">
        <path id="Path_8103" data-name="Path 8103" d="M13.4.461a.346.346,0,0,0-.5,0l-.717.711A4.27,4.27,0,0,0,10.838.309,4.161,4.161,0,0,0,9.272,0,4.071,4.071,0,0,0,6.626.921a4.3,4.3,0,0,0-1.489,2.4v.039a.179.179,0,0,0,.176.176h1.1A.165.165,0,0,0,6.576,3.4a6.666,6.666,0,0,1,.292-.645,2.812,2.812,0,0,1,2.4-1.345A2.74,2.74,0,0,1,11.2,2.17l-.761.761a.353.353,0,0,0,.248.6h2.47a.358.358,0,0,0,.353-.353V.709A.339.339,0,0,0,13.4.461Z" transform="translate(-5.038 -0.003)" fill="#172b37"/>
        <path id="Path_8104" data-name="Path 8104" d="M8.154,255.8H7.1a.165.165,0,0,0-.165.127,6.672,6.672,0,0,1-.292.645,2.812,2.812,0,0,1-2.4,1.345,2.752,2.752,0,0,1-1.031-.2,2.848,2.848,0,0,1-.888-.563l.755-.755a.353.353,0,0,0-.248-.6H.353a.339.339,0,0,0-.248.1.339.339,0,0,0-.1.248v2.47a.339.339,0,0,0,.1.248.34.34,0,0,0,.248.1.34.34,0,0,0,.248-.1l.711-.711a4.209,4.209,0,0,0,1.343.866,4.128,4.128,0,0,0,1.558.3,4.042,4.042,0,0,0,2.635-.918,4.285,4.285,0,0,0,1.478-2.4.1.1,0,0,0,.005-.039.179.179,0,0,0-.177-.176Z" transform="translate(0 -250.861)" fill="#172b37"/>
      </g>
    </g>
  </g>
</svg>
