<svg xmlns="http://www.w3.org/2000/svg" width="23" height="23" viewBox="0 0 23 23">
  <g id="Group_25993" data-name="Group 25993" transform="translate(-1341.5 -11912.281)">
    <circle id="Ellipse_1615" data-name="Ellipse 1615" cx="11.5" cy="11.5" r="11.5" transform="translate(1341.5 11912.281)" fill="#fff"/>
    <path id="_004-settings" data-name="004-settings" d="M8.267,3.424l-.685-.087a3.444,3.444,0,0,0-.207-.5L7.8,2.291a.542.542,0,0,0-.044-.721L7.179,1A.543.543,0,0,0,6.456.949l-.544.423a3.432,3.432,0,0,0-.5-.207L5.323.481A.546.546,0,0,0,4.782,0H3.965a.546.546,0,0,0-.542.48l-.087.685a3.392,3.392,0,0,0-.5.207L2.291.949A.542.542,0,0,0,1.57.994L1,1.568a.543.543,0,0,0-.046.724l.423.545a3.4,3.4,0,0,0-.207.5l-.684.087A.546.546,0,0,0,0,3.965v.816a.546.546,0,0,0,.48.542l.685.087a3.444,3.444,0,0,0,.207.5l-.423.545a.542.542,0,0,0,.044.721l.574.574a.544.544,0,0,0,.723.046l.545-.423a3.365,3.365,0,0,0,.5.207l.087.684a.546.546,0,0,0,.542.482h.816a.546.546,0,0,0,.542-.48l.087-.685a3.444,3.444,0,0,0,.5-.207l.545.423a.542.542,0,0,0,.721-.044l.574-.574A.543.543,0,0,0,7.8,6.456l-.423-.545a3.365,3.365,0,0,0,.207-.5l.684-.087a.546.546,0,0,0,.481-.542V3.965a.545.545,0,0,0-.48-.542ZM4.374,6.2A1.822,1.822,0,1,1,6.2,4.374,1.824,1.824,0,0,1,4.374,6.2Z" transform="translate(1348.5 11919.074)" fill="#172b37"/>
  </g>
</svg>
