<svg xmlns="http://www.w3.org/2000/svg" width="19" height="19" viewBox="0 0 19 19">
  <g id="Group_25730" data-name="Group 25730" transform="translate(-1256 -1119)">
    <circle id="Ellipse_1564" data-name="Ellipse 1564" cx="9.5" cy="9.5" r="9.5" transform="translate(1256 1119)" fill="#fff"/>
    <g id="trash" transform="translate(1214 1124)">
      <path id="Path_7343" data-name="Path 7343" d="M54.3,1.072H52.826V.8a.8.8,0,0,0-.8-.8H50.949a.8.8,0,0,0-.8.8v.268H48.67a.67.67,0,0,0-.67.67v.536a.268.268,0,0,0,.268.268H54.7a.268.268,0,0,0,.268-.268V1.743A.67.67,0,0,0,54.3,1.072ZM50.681.8a.268.268,0,0,1,.268-.268h1.072A.268.268,0,0,1,52.29.8v.268H50.681Z" fill="#172b37"/>
      <path id="Path_7344" data-name="Path 7344" d="M73.448,184a.084.084,0,0,0-.084.088l.221,4.643a.8.8,0,0,0,.8.766h4.072a.8.8,0,0,0,.8-.766l.221-4.643A.084.084,0,0,0,79.4,184Zm4.049.67a.268.268,0,0,1,.536,0v3.486a.268.268,0,1,1-.536,0Zm-1.341,0a.268.268,0,0,1,.536,0v3.486a.268.268,0,1,1-.536,0Zm-1.341,0a.268.268,0,0,1,.536,0v3.486a.268.268,0,1,1-.536,0Z" transform="translate(-24.939 -180.917)" fill="#172b37"/>
    </g>
  </g>
</svg>
