<svg xmlns="http://www.w3.org/2000/svg" width="23" height="23" viewBox="0 0 23 23">
  <g id="Group_27099" data-name="Group 27099" transform="translate(-1000 -431)">
    <g id="Group_27093" data-name="Group 27093" transform="translate(126 215)">
      <g id="Group_26913" data-name="Group 26913" transform="translate(200)">
        <g id="Group_26909" data-name="Group 26909" transform="translate(-893 -41)">
          <g id="Group_25269" data-name="Group 25269" transform="translate(311 -862)">
            <circle id="Ellipse_1564" data-name="Ellipse 1564" cx="11.5" cy="11.5" r="11.5" transform="translate(1256 1119)" fill="#f2f2f4"/>
          </g>
        </g>
        <g id="Group_26910" data-name="Group 26910">
          <rect id="Rectangle_14123" data-name="Rectangle 14123" width="11" height="11" transform="translate(680 222)" fill="none"/>
          <path id="Path_7369" data-name="Path 7369" d="M729.664,1035.95a.455.455,0,0,1,.332.15l3.23,3.375a.46.46,0,0,1-.013.652.465.465,0,0,1-.319.129H731.2v3.535a.77.77,0,0,1-.768.768H728.9a.771.771,0,0,1-.768-.768v-3.535h-1.691a.462.462,0,0,1-.333-.78l3.228-3.375A.458.458,0,0,1,729.664,1035.95Z" transform="translate(-43.976 -812.949)" fill="#396"/>
        </g>
      </g>
    </g>
  </g>
</svg>
