<svg xmlns="http://www.w3.org/2000/svg" width="22.001" height="25" viewBox="0 0 22.001 25"><defs><style>.a{fill:none;}.b{fill:#acacac;}</style></defs><g transform="translate(-668.999 -489)"><rect class="a" width="22" height="25" transform="translate(669 489)"/><g transform="translate(637.639 489)"><path class="b" d="M51.958,8.882h-.6V6a.43.43,0,0,0-.005-.054.478.478,0,0,0-.116-.315L46.454.167l0,0a.473.473,0,0,0-.1-.081L46.321.063a.51.51,0,0,0-.1-.04L46.2.014A.489.489,0,0,0,46.087,0H34.322a.975.975,0,0,0-.974.974V8.881h-.6a1.392,1.392,0,0,0-1.392,1.392V17.51A1.392,1.392,0,0,0,32.752,18.9h.6v4.954a.975.975,0,0,0,.974.974H50.388a.975.975,0,0,0,.974-.974V18.9h.6a1.392,1.392,0,0,0,1.392-1.392V10.273A1.392,1.392,0,0,0,51.958,8.882ZM34.322.974H45.6V5.956a.487.487,0,0,0,.487.487h4.3V8.882H34.322Zm7.33,13.209c-1.208-.421-2-1.089-2-2.146,0-1.241,1.035-2.19,2.75-2.19a4.446,4.446,0,0,1,1.855.367L43.9,11.541a3.448,3.448,0,0,0-1.521-.346c-.712,0-1.057.324-1.057.7,0,.464.41.669,1.349,1.025,1.283.475,1.888,1.143,1.888,2.168,0,1.219-.938,2.255-2.934,2.255a4.764,4.764,0,0,1-2.06-.442l.334-1.359A4.189,4.189,0,0,0,41.717,16c.755,0,1.154-.313,1.154-.788C42.871,14.754,42.525,14.5,41.652,14.183Zm-8.566-.475a3.707,3.707,0,0,1,3.97-3.862,4.286,4.286,0,0,1,1.791.324l-.335,1.3a3.563,3.563,0,0,0-1.381-.269,2.186,2.186,0,0,0-2.319,2.4,2.171,2.171,0,0,0,2.33,2.373,4.105,4.105,0,0,0,1.37-.237l.248,1.284a4.68,4.68,0,0,1-1.866.313A3.458,3.458,0,0,1,33.086,13.708Zm17.3,9.885H34.322V18.9H50.388ZM49.3,17.235h-1.92l-2.33-7.27h1.8l.884,3.075c.248.863.475,1.693.648,2.6h.032c.183-.874.41-1.737.658-2.567L50,9.965H51.75Z" transform="translate(0)"/></g></g></svg>