<svg xmlns="http://www.w3.org/2000/svg" width="22" height="25" viewBox="0 0 22 25"><defs><style>.a{fill:none;}.b{fill:#acacac;}</style></defs><g transform="translate(-543 -489)"><rect class="a" width="22" height="25" transform="translate(543 489)"/><g transform="translate(511.64 489)"><path class="b" d="M51.955,8.88h-.6V6a.421.421,0,0,0-.005-.054.477.477,0,0,0-.116-.315L46.451.166l0,0a.476.476,0,0,0-.1-.081L46.319.063a.511.511,0,0,0-.1-.04L46.2.014A.489.489,0,0,0,46.085,0H34.321a.975.975,0,0,0-.974.974V8.88h-.6a1.391,1.391,0,0,0-1.392,1.391v7.236A1.392,1.392,0,0,0,32.752,18.9h.6v4.953a.974.974,0,0,0,.974.974H50.385a.975.975,0,0,0,.974-.974V18.9h.6a1.392,1.392,0,0,0,1.391-1.391V10.272A1.391,1.391,0,0,0,51.955,8.88ZM34.321.974H45.6V5.955a.487.487,0,0,0,.487.487h4.3V8.88H34.321ZM46.582,15.207a2.93,2.93,0,0,0,.981-.17l.177.919a3.36,3.36,0,0,1-1.335.224,2.475,2.475,0,0,1-2.726-2.6,2.653,2.653,0,0,1,2.842-2.765,3.074,3.074,0,0,1,1.282.232l-.239.935a2.534,2.534,0,0,0-.989-.193,1.565,1.565,0,0,0-1.66,1.722A1.554,1.554,0,0,0,46.582,15.207Zm-3.437-1.76a2.481,2.481,0,0,1-2.556,2.741,2.427,2.427,0,0,1-2.448-2.649,2.52,2.52,0,0,1,2.533-2.726A2.426,2.426,0,0,1,43.146,13.447ZM33.006,16.08V10.968A10.53,10.53,0,0,1,34.6,10.86a3.344,3.344,0,0,1,2.131.556,2.3,2.3,0,0,1,.881,1.961,2.639,2.639,0,0,1-.865,2.108,3.738,3.738,0,0,1-2.4.672A10.3,10.3,0,0,1,33.006,16.08Zm17.379,7.509H34.321V18.9H50.385v4.69Zm.892-7.487-.471-.942c-.193-.363-.317-.633-.463-.934h-.015c-.108.3-.239.572-.4.934l-.433.942H48.15l1.506-2.633L48.2,10.9h1.352l.455.95c.155.316.27.571.394.864h.015c.124-.332.224-.564.355-.864l.44-.95H52.56l-1.467,2.54L52.637,16.1H51.278Z" transform="translate(0)"/><path class="b" d="M95.977,261.435a1.493,1.493,0,0,0-1.637-1.652,2.439,2.439,0,0,0-.533.047v3.4a2.181,2.181,0,0,0,.41.023A1.613,1.613,0,0,0,95.977,261.435Z" transform="translate(-59.619 -248.02)"/><path class="b" d="M208.6,261.211c0,1.02.479,1.737,1.266,1.737s1.25-.756,1.25-1.768c0-.935-.448-1.738-1.259-1.738C209.067,259.443,208.6,260.2,208.6,261.211Z" transform="translate(-169.219 -247.696)"/></g></g></svg>