<svg xmlns="http://www.w3.org/2000/svg" width="22" height="25" viewBox="0 0 22 25"><defs><style>.a{fill:none;}.b{fill:#acacac;}</style></defs><g transform="translate(-1131 -489)"><rect class="a" width="22" height="25" transform="translate(1131 489)"/><path class="b" d="M10410.024-12993.174h-16.063a.974.974,0,0,1-.974-.974v-4.952h-.595a1.4,1.4,0,0,1-1.393-1.393v-7.236a1.394,1.394,0,0,1,1.393-1.392h.595v-7.906a.974.974,0,0,1,.974-.974h11.765a.661.661,0,0,1,.105.013l.009,0,.022.008a.467.467,0,0,1,.095.04.164.164,0,0,1,.033.02.5.5,0,0,1,.1.081l0,0h0l4.786,5.466a.477.477,0,0,1,.114.316v.007a.267.267,0,0,1,0,.049v2.875h.6a1.391,1.391,0,0,1,1.388,1.392v7.236a1.392,1.392,0,0,1-1.388,1.393h-.6v4.952A.974.974,0,0,1,10410.024-12993.174Zm-16.063-5.926v4.688h16.063v-4.687Zm.146-3.581-.134.974a3.091,3.091,0,0,0,.879.127c1.295,0,1.9-.652,1.9-2.052V-13007h-1.2v3.355c0,.742-.246,1.059-.823,1.059A1.962,1.962,0,0,1,10394.107-13002.681Zm14.346-4.319a2.593,2.593,0,0,0-2.875,2.63,2.426,2.426,0,0,0,.709,1.827,2.808,2.808,0,0,0,2.045.683,5.45,5.45,0,0,0,1.68-.288v-2.649h-1.872v.889h.777v1.052a1.544,1.544,0,0,1-.562.075,1.516,1.516,0,0,1-1.585-1.649,1.528,1.528,0,0,1,1.666-1.627,2.707,2.707,0,0,1,1.173.216l.242-.912A3.522,3.522,0,0,0,10408.453-13007Zm-6.58,0v5.07h2.96v-.937h-1.862v-1.1h1.738v-.993h-1.738v-1.1h1.862v-.937Zm-2.829,0a9.216,9.216,0,0,0-1.535.1v4.966h1.124l0-1.8a3.081,3.081,0,0,0,.386.023,2.314,2.314,0,0,0,1.637-.529,1.634,1.634,0,0,0,.461-1.2,1.472,1.472,0,0,0-.536-1.166A2.425,2.425,0,0,0,10399.044-13007Zm-5.083-10.026v7.906h16.063v-2.437h-4.3a.489.489,0,0,1-.487-.49v-4.979Zm5.054,12.447a1.587,1.587,0,0,1-.379-.032v-1.486a2.013,2.013,0,0,1,.467-.043c.567,0,.893.27.893.738C10400-13004.887,10399.629-13004.579,10399.015-13004.579Z" transform="translate(-9260 13507)"/></g></svg>