<svg xmlns="http://www.w3.org/2000/svg" width="22" height="25" viewBox="0 0 22 25"><defs><style>.a{fill:none;}.b{fill:#acacac;}</style></defs><g transform="translate(-1089 -489)"><rect class="a" width="22" height="25" transform="translate(1089 489)"/><path class="b" d="M10410.028-12993.17h-16.067a.974.974,0,0,1-.974-.974v-4.953h-.595a1.394,1.394,0,0,1-1.393-1.392v-7.236a1.4,1.4,0,0,1,1.393-1.393h.595v-7.909a.974.974,0,0,1,.974-.974h11.768a.672.672,0,0,1,.1.012h.008a.136.136,0,0,0,.026.01.507.507,0,0,1,.095.04l.01.006.022.014a.449.449,0,0,1,.1.081h0l0,0,4.785,5.469a.484.484,0,0,1,.117.313.222.222,0,0,0,0,.025c0,.012,0,.021,0,.03v2.878h.595a1.394,1.394,0,0,1,1.392,1.393v7.236a1.393,1.393,0,0,1-1.392,1.392H10411v4.953A.974.974,0,0,1,10410.028-12993.17Zm-16.067-5.927v4.688h16.067v-4.688Zm10.719-8.6v7.286h1.5v-3.343h2.369v-1.212h-2.369v-1.509h2.535v-1.223Zm-7.449,1.382v5.891h1.646l0-5.891h1.983v-1.382h-5.587v1.382Zm4.715-1.382v7.27h1.649v-7.27Zm-7.984-9.327v7.909h16.067v-2.44h-4.3a.486.486,0,0,1-.486-.486v-4.982Z" transform="translate(-9302 13507)"/></g></svg>