<svg xmlns="http://www.w3.org/2000/svg" width="22" height="25" viewBox="0 0 22 25"><defs><style>.a{fill:none;}.b{fill:#acacac;}</style></defs><g transform="translate(-501 -489)"><rect class="a" width="22" height="25" transform="translate(501 489)"/><g transform="translate(469.496 489)"><path class="b" d="M52.1,8.882h-.6V6a.469.469,0,0,0-.005-.054.478.478,0,0,0-.116-.315L46.6.167l0,0a.483.483,0,0,0-.1-.081L46.465.063a.511.511,0,0,0-.1-.04L46.343.014A.488.488,0,0,0,46.231,0H34.466a.975.975,0,0,0-.974.974V8.881h-.6A1.392,1.392,0,0,0,31.5,10.273v7.237A1.392,1.392,0,0,0,32.9,18.9h.6v4.954a.975.975,0,0,0,.974.974H50.532a.975.975,0,0,0,.974-.974V18.9h.6a1.392,1.392,0,0,0,1.392-1.392V10.273A1.391,1.391,0,0,0,52.1,8.882ZM34.466.974H45.744V5.956a.487.487,0,0,0,.487.487h4.3V8.882H34.466Zm10.926,15v1.412H40.746V9.949h1.689v6.025Zm-11.96,1.412,2.152-3.762L33.508,9.949h1.931l.651,1.357c.221.452.386.817.563,1.236h.022c.177-.475.32-.806.508-1.236l.629-1.357h1.92l-2.1,3.63,2.207,3.807H37.9l-.673-1.346c-.276-.519-.452-.9-.662-1.335h-.022c-.155.431-.342.817-.574,1.335l-.618,1.346h-1.92Zm17.1,6.207H34.466V18.9H50.532v4.691ZM48.2,17.5a4.867,4.867,0,0,1-2.107-.453l.342-1.39a4.3,4.3,0,0,0,1.865.464c.773,0,1.181-.32,1.181-.805,0-.464-.353-.728-1.247-1.048C47,13.833,46.2,13.149,46.2,12.068c0-1.269,1.059-2.24,2.814-2.24a4.564,4.564,0,0,1,1.9.375l-.375,1.357a3.533,3.533,0,0,0-1.556-.353c-.728,0-1.081.331-1.081.717,0,.474.419.684,1.379,1.048,1.313.485,1.931,1.169,1.931,2.218C51.206,16.438,50.246,17.5,48.2,17.5Z"/></g></g></svg>