<svg xmlns="http://www.w3.org/2000/svg" width="22.001" height="25" viewBox="0 0 22.001 25"><defs><style>.a{fill:none;}.b{fill:#acacac;}</style></defs><g transform="translate(-710.999 -489)"><rect class="a" width="22" height="25" transform="translate(711 489)"/><g transform="translate(679.639 489)"><path class="b" d="M51.959,8.882h-.6V6a.477.477,0,0,0,0-.054.478.478,0,0,0-.116-.315L46.454.167l0,0a.479.479,0,0,0-.1-.081L46.321.063a.511.511,0,0,0-.1-.04L46.2.014A.484.484,0,0,0,46.087,0H34.322a.975.975,0,0,0-.974.974V8.881h-.6a1.392,1.392,0,0,0-1.392,1.392v7.237A1.392,1.392,0,0,0,32.752,18.9h.6v4.954a.975.975,0,0,0,.974.974H50.388a.975.975,0,0,0,.974-.974V18.9h.6a1.392,1.392,0,0,0,1.392-1.392V10.274A1.391,1.391,0,0,0,51.959,8.882ZM34.322.974H45.6V5.956a.487.487,0,0,0,.487.487h4.3V8.882H34.322ZM44.186,14.25c-.957-.333-1.581-.862-1.581-1.7,0-.983.82-1.734,2.179-1.734a3.524,3.524,0,0,1,1.469.29l-.29,1.051a2.74,2.74,0,0,0-1.2-.273c-.564,0-.837.256-.837.555,0,.368.325.53,1.068.812,1.017.376,1.5.906,1.5,1.717,0,.966-.743,1.786-2.324,1.786a3.764,3.764,0,0,1-1.632-.35l.265-1.076a3.326,3.326,0,0,0,1.444.359c.6,0,.914-.248.914-.624C45.151,14.7,44.878,14.5,44.186,14.25Zm-2.2,1.324v1.094h-3.6V10.909h1.308v4.665Zm-7.775,1.094H32.721l1.666-2.914L32.78,10.909h1.5l.5,1.051c.171.35.3.632.436.957h.017c.137-.368.248-.624.393-.957l.487-1.051H37.6l-1.623,2.811,1.709,2.948h-1.5l-.521-1.043c-.213-.4-.35-.7-.512-1.034H35.13c-.12.333-.265.633-.444,1.034Zm16.181,6.925H34.322V18.9H50.388v4.691Zm.009-6.925-.521-1.043c-.214-.4-.35-.7-.513-1.034h-.017c-.12.333-.265.632-.445,1.034l-.478,1.043H46.937L48.6,13.754,47,10.909h1.5L49,11.96c.171.35.3.632.436.957h.017c.136-.368.247-.624.393-.957l.487-1.051h1.487l-1.623,2.811L51.9,16.668H50.4Z" transform="translate(0)"/></g></g></svg>