<svg xmlns="http://www.w3.org/2000/svg" width="30" height="30" viewBox="0 0 30 30">
  <g id="Group_41816" data-name="Group 41816" transform="translate(-1562.832 -607.425)">
    <g id="Group_41813" data-name="Group 41813" transform="translate(17659.832 8697.425)">
      <circle id="Ellipse_1779" data-name="Ellipse 1779" cx="15" cy="15" r="15" transform="translate(-16097 -8090)" fill="#efefef"/>
      <g id="uk-flag-circular-17883" transform="translate(-16094.272 -8087.273)">
        <path id="Path_11623" data-name="Path 11623" d="M24.1,15.636c.009-.034.021-.066.03-.1h0a12.265,12.265,0,0,0,0-6.367h0c-.011-.04-.024-.079-.035-.118-.037-.134-.076-.268-.118-.4-.022-.07-.046-.14-.069-.21s-.038-.119-.059-.178h0A12.256,12.256,0,0,0,21.93,4.777L16.363,7.562V.772A12.232,12.232,0,0,0,12.568.079h-.59A12.238,12.238,0,0,0,8.183.772v6.79L2.615,4.777A12.255,12.255,0,0,0,.7,8.26h0c-.021.059-.039.119-.059.178s-.047.139-.069.209c-.042.133-.081.267-.118.4-.011.04-.024.078-.035.118h0a12.273,12.273,0,0,0,0,6.369h0c.009.034.02.066.029.1.04.143.081.285.126.426.02.064.042.128.064.192s.04.127.062.189h0A12.25,12.25,0,0,0,2.62,19.924l5.564-2.783v6.782a12.283,12.283,0,0,0,8.179,0V17.141l5.563,2.782a12.252,12.252,0,0,0,1.913-3.481h0c.022-.062.041-.126.063-.189s.043-.128.064-.192Q24.037,15.85,24.1,15.636Z" transform="translate(0 -0.079)" fill="#f3f4f5"/>
        <path id="Path_11624" data-name="Path 11624" d="M14.727.317A12.3,12.3,0,0,0,12.568.079h-.59A12.321,12.321,0,0,0,9.819.317V9.9H.245a12.375,12.375,0,0,0,0,4.909H9.819v9.572a12.365,12.365,0,0,0,4.908,0V14.806H24.3a12.376,12.376,0,0,0,0-4.909H14.727Z" transform="translate(0 -0.079)" fill="#c00"/>
        <path id="Path_11625" data-name="Path 11625" d="M213.757,170.142a13.222,13.222,0,0,0,.645-1.514H210.73Z" transform="translate(-190.617 -152.346)" fill="#c00"/>
        <path id="Path_11626" data-name="Path 11626" d="M179.137,55.36l-6.094,3.047H177l3.03-1.515A13.305,13.305,0,0,0,179.137,55.36Z" transform="translate(-156.89 -50.05)" fill="#c00"/>
        <path id="Path_11627" data-name="Path 11627" d="M7.852,69.932a13.2,13.2,0,0,0-.644,1.516h3.675Z" transform="translate(-6.45 -63.184)" fill="#c00"/>
        <path id="Path_11628" data-name="Path 11628" d="M14.268,171.673l6.09-3.045H16.4l-3.028,1.514A13.3,13.3,0,0,0,14.268,171.673Z" transform="translate(-11.965 -152.439)" fill="#c00"/>
        <path id="Path_11629" data-name="Path 11629" d="M26.99,204.487" transform="translate(-24.153 -185.031)" fill="#006"/>
        <path id="Path_11630" data-name="Path 11630" d="M225.958,48.475" transform="translate(-204.244 -43.387)" fill="#006"/>
        <path id="Path_11631" data-name="Path 11631" d="M225.91,204.484" transform="translate(-204.201 -185.028)" fill="#006"/>
        <path id="Path_11632" data-name="Path 11632" d="M26.945,48.472" transform="translate(-24.113 -43.385)" fill="#006"/>
        <path id="Path_11633" data-name="Path 11633" d="M26.945,11.592l6.029,3.015V7.261A13.311,13.311,0,0,0,26.945,11.592Z" transform="translate(-24.113 -6.506)" fill="#006"/>
        <path id="Path_11634" data-name="Path 11634" d="M168.592,7.264v7.345l6.029-3.014A13.308,13.308,0,0,0,168.592,7.264Z" transform="translate(-152.907 -6.509)" fill="#006"/>
        <path id="Path_11635" data-name="Path 11635" d="M33.018,178.839v-3.012l-6.025,3.012a13.311,13.311,0,0,0,6.025,4.325Z" transform="translate(-24.156 -159.382)" fill="#006"/>
        <path id="Path_11636" data-name="Path 11636" d="M168.592,175.827v7.337a13.311,13.311,0,0,0,6.024-4.325Z" transform="translate(-152.907 -159.382)" fill="#006"/>
      </g>
    </g>
  </g>
</svg>
