<svg xmlns="http://www.w3.org/2000/svg" width="30" height="30" viewBox="0 0 30 30">
  <g id="Group_41817" data-name="Group 41817" transform="translate(-1668.053 -607.425)">
    <g id="Group_41814" data-name="Group 41814" transform="translate(17765.053 8697.425)">
      <circle id="Ellipse_1779" data-name="Ellipse 1779" cx="15" cy="15" r="15" transform="translate(-16097 -8090)" fill="#efefef"/>
    </g>
    <g id="georgia-flag-circular-17803" transform="translate(1670.805 610.248)">
      <circle id="Ellipse_1775" data-name="Ellipse 1775" cx="12.267" cy="12.267" r="12.267" transform="translate(0 0)" fill="#fff"/>
      <path id="Path_11637" data-name="Path 11637" d="M183.319,167.045a9.334,9.334,0,0,1,.149-1.168s-.369.038-.556.038-.556-.038-.556-.038a9.324,9.324,0,0,1,.149,1.168,9.327,9.327,0,0,1-1.168-.149,4.09,4.09,0,0,1,0,1.111,9.331,9.331,0,0,1,1.168-.149,9.334,9.334,0,0,1-.149,1.168,4.09,4.09,0,0,1,1.111,0,9.326,9.326,0,0,1-.149-1.168,9.339,9.339,0,0,1,1.168.149s-.038-.369-.038-.556.038-.556.038-.556A9.335,9.335,0,0,1,183.319,167.045Z" transform="translate(-163.747 -149.786)" fill="red"/>
      <path id="Path_11638" data-name="Path 11638" d="M182.506,56.532a9.334,9.334,0,0,1-.149,1.168,4.093,4.093,0,0,1,1.111,0,9.328,9.328,0,0,1-.149-1.168,9.335,9.335,0,0,1,1.168.149s-.038-.369-.038-.556.038-.556.038-.556a9.326,9.326,0,0,1-1.168.149,9.338,9.338,0,0,1,.149-1.168s-.369.038-.556.038-.556-.038-.556-.038a9.325,9.325,0,0,1,.149,1.168,9.328,9.328,0,0,1-1.168-.149,4.092,4.092,0,0,1,0,1.111A9.336,9.336,0,0,1,182.506,56.532Z" transform="translate(-163.747 -49.259)" fill="red"/>
      <path id="Path_11639" data-name="Path 11639" d="M40.258,56.532a9.336,9.336,0,0,1-.149,1.168,4.093,4.093,0,0,1,1.111,0,9.326,9.326,0,0,1-.149-1.168,9.326,9.326,0,0,1,1.168.149s-.038-.369-.038-.556.038-.556.038-.556a9.327,9.327,0,0,1-1.168.149,9.335,9.335,0,0,1,.149-1.168s-.369.038-.556.038-.556-.038-.556-.038a9.327,9.327,0,0,1,.149,1.168,9.337,9.337,0,0,1-1.168-.149,4.091,4.091,0,0,1,0,1.111A9.335,9.335,0,0,1,40.258,56.532Z" transform="translate(-35.298 -49.259)" fill="red"/>
      <path id="Path_11640" data-name="Path 11640" d="M41.072,167.045a9.337,9.337,0,0,1,.149-1.168s-.369.038-.556.038-.556-.038-.556-.038a9.327,9.327,0,0,1,.149,1.168,9.336,9.336,0,0,1-1.168-.149,4.091,4.091,0,0,1,0,1.111,9.33,9.33,0,0,1,1.168-.149,9.337,9.337,0,0,1-.149,1.168,4.09,4.09,0,0,1,1.111,0,9.328,9.328,0,0,1-.149-1.168,9.33,9.33,0,0,1,1.168.149s-.038-.369-.038-.556.038-.556.038-.556A9.326,9.326,0,0,1,41.072,167.045Z" transform="translate(-35.298 -149.786)" fill="red"/>
      <path id="Path_11641" data-name="Path 11641" d="M14.067.133a12.268,12.268,0,0,0-3.6,0V10.467H.133a12.268,12.268,0,0,0,0,3.6H10.467V24.4a12.269,12.269,0,0,0,3.6,0V14.067H24.4a12.269,12.269,0,0,0,0-3.6H14.067Z" transform="translate(0 0)" fill="red"/>
    </g>
  </g>
</svg>
