<svg xmlns="http://www.w3.org/2000/svg" width="30" height="30" viewBox="0 0 30 30">
  <g id="Group_41818" data-name="Group 41818" transform="translate(-1770.273 -607.425)">
    <g id="Group_41815" data-name="Group 41815" transform="translate(17867.273 8697.425)">
      <circle id="Ellipse_1779" data-name="Ellipse 1779" cx="15" cy="15" r="15" transform="translate(-16097 -8090)" fill="#efefef"/>
    </g>
    <g id="russia-flag-circular-17765" transform="translate(1772.912 609.969)">
      <path id="Path_11642" data-name="Path 11642" d="M7.225,8.214H30.46A12.325,12.325,0,0,0,18.851,0h-.019A12.324,12.324,0,0,0,7.225,8.214Z" transform="translate(-6.521)" fill="#fff"/>
      <path id="Path_11643" data-name="Path 11643" d="M30.46,168.6H7.225a12.323,12.323,0,0,0,23.235,0Z" transform="translate(-6.521 -152.171)" fill="#d52b1e"/>
      <path id="Path_11644" data-name="Path 11644" d="M23.939,92.514a12.333,12.333,0,0,0,0-8.214H.7a12.333,12.333,0,0,0,0,8.214Z" transform="translate(0 -76.086)" fill="#0039a6"/>
    </g>
  </g>
</svg>
