<svg xmlns="http://www.w3.org/2000/svg" width="18" height="18" viewBox="0 0 18 18">
  <g id="Group_24337" data-name="Group 24337" transform="translate(-447.501 -1176.257)">
    <g id="Ellipse_1511" data-name="Ellipse 1511" transform="translate(447.501 1176.257)" fill="#fff" stroke="#5da9dd" stroke-width="1">
      <circle cx="9" cy="9" r="9" stroke="none"/>
      <circle cx="9" cy="9" r="8.5" fill="none"/>
    </g>
    <path id="_002-twitter" data-name="002-twitter" d="M3.3,3.783A5.68,5.68,0,0,0,9.274-1.681q0-.125-.006-.248a4.09,4.09,0,0,0,1.047-.994,4.5,4.5,0,0,1-1.206.3,1.969,1.969,0,0,0,.923-1.062A4.456,4.456,0,0,1,8.7-3.217a2.193,2.193,0,0,0-1.533-.607,2.016,2.016,0,0,0-2.1,1.92,1.763,1.763,0,0,0,.054.438A6.162,6.162,0,0,1,.794-3.472a1.793,1.793,0,0,0-.284.965,1.882,1.882,0,0,0,.934,1.6,2.233,2.233,0,0,1-.951-.24c0,.008,0,.016,0,.025A1.973,1.973,0,0,0,2.177.758a2.292,2.292,0,0,1-.554.068A2.275,2.275,0,0,1,1.229.791,2.087,2.087,0,0,0,3.19,2.125a4.468,4.468,0,0,1-2.608.822,4.667,4.667,0,0,1-.5-.027A6.352,6.352,0,0,0,3.3,3.783" transform="translate(451.303 1185.535)" fill="#5da9dd"/>
  </g>
</svg>
